<?xml version="1.0" encoding="UTF-8"?> <svg xmlns="http://www.w3.org/2000/svg" xmlns:xlink="http://www.w3.org/1999/xlink" width="91px" height="91px" viewBox="0 0 91 91" version="1.1"><title>Icon Tauben</title><g id="Wibsite" stroke="none" stroke-width="1" fill="none" fill-rule="evenodd"><g id="Desktop_1440px---Startseite" transform="translate(-1087.000000, -2148.000000)"><g id="Schädlinge-und-Co." transform="translate(70.000000, 1927.000000)"><g id="Icons-Schädlinge" transform="translate(203.000000, 220.000000)"><g id="Icon-Tauben" transform="translate(814.000000, 1.000000)"><g id="Icon-Taube" transform="translate(16.000000, 21.000000)" fill="#083F51"><path d="M39.0445307,45.7245805 C38.8107323,46.0303891 38.6538284,46.2354242 38.4585746,46.4906522 C38.7165121,46.5061558 38.9769803,46.5197215 39.2370591,46.538132 C39.9489666,46.5883249 40.6600953,46.6699126 41.3723921,46.6813465 C41.8495277,46.6890983 42.3309461,46.6158438 42.8057458,46.546659 C43.341477,46.4685596 43.6007772,46.6235956 43.7010321,47.1654465 C43.2749,47.0561461 42.8219033,46.7809572 42.5180238,47.3617609 C42.4839566,47.426876 42.2768279,47.4158297 42.1499032,47.4166049 C41.3745334,47.4210621 40.598969,47.4189304 39.7891427,47.4189304 C39.8784961,47.6607866 39.9446838,47.8402408 39.975831,47.925123 C39.5635204,47.949735 39.1798262,48.0386869 38.8202711,47.9807422 C38.0435386,47.8553568 37.2796544,47.652841 36.5095407,47.4855959 C36.2173413,47.4222249 35.9198859,47.3102114 35.6298279,47.3233895 C34.9809935,47.3530401 34.4460409,47.1894771 34.0983607,46.6518897 C33.4045575,46.8046002 32.7483257,46.9836668 32.0804136,47.0865719 C31.4271018,47.1871516 31.2316533,47.0168057 31.1018086,46.3152677 C30.7514029,46.4108087 30.4080054,46.5042179 30.0823229,46.5927822 C30.0794028,46.0672101 30.3254654,45.792215 30.9071388,45.8404699 C31.3722049,45.8788413 31.8281215,46.01818 32.292409,46.0792254 C32.6601402,46.1274804 33.0372156,46.1613945 33.4053362,46.1358135 C33.8927894,46.1015118 34.1215264,45.7656651 33.9173177,45.3273007 C33.4752227,44.3778989 33.0313755,43.4164818 32.1137021,42.7959501 C32.0220127,42.7339357 31.9344113,42.6531232 31.8725063,42.5622333 C31.1226382,41.4597334 30.5598479,40.2907618 30.6821005,38.9107475 C30.7128583,38.5628854 30.8226521,38.2221937 30.90052,37.8580529 C29.466777,37.439068 28.0318659,37.0437262 26.6125285,36.5987728 C24.8665351,36.0514957 23.1433181,35.4315454 21.3932367,34.8988029 C18.0190252,33.8713017 14.5930316,33.7401024 11.1664539,34.5701265 C9.59722071,34.9503524 8.08950318,35.5759227 6.52844612,35.9968455 C5.06219325,36.3921873 3.56693459,36.6881123 2.0744013,36.9760917 C1.65800261,37.0563229 1.19741389,36.9983782 0.773228411,36.918147 C0.500106694,36.8665975 0.256769455,36.6592369 0,36.5216424 C0.00953881978,36.4704805 0.0192723093,36.4193186 0.0290057989,36.3681567 C3.1189994,34.9550034 6.208993,33.5420439 9.39320677,32.0858681 C8.35600612,31.8068033 7.41750306,31.5870397 6.50041367,31.2990603 C5.35887002,30.9405395 4.22861721,30.5420969 3.1086819,30.1211741 C2.88286494,30.0362919 2.60974322,29.7934668 2.57353464,29.5862999 C2.54705955,29.4341708 2.83809089,29.1237112 3.04599823,29.052007 C4.12699958,28.6789516 5.2081956,28.2702379 6.3236535,28.039428 C9.37977456,27.4070748 12.4937125,27.1962259 15.6031731,27.0944835 C17.8825617,27.0196786 19.9725366,26.3481788 22.0198788,25.4854034 C24.939731,24.2549988 27.6950872,22.7058014 30.2882835,20.8924613 C31.1790925,20.2694103 32.189234,19.9345325 33.1269584,19.4335724 C36.2455685,17.7669352 37.964308,15.1210517 38.4786256,11.6908798 C38.6715434,10.402918 38.6627833,9.08588707 38.7667369,7.7837783 C38.9094299,5.99834474 39.2738517,4.27163108 40.207488,2.70673626 C41.2108162,1.02459545 42.6840771,0.107363605 44.6553034,0.0251945151 C45.2196512,0.00155152219 45.7962631,-0.0288742966 46.3495146,0.056783104 C47.4542657,0.22790411 48.13561,1.02071955 48.6612184,1.90616902 C49.0661316,2.5883275 49.5596195,3.12785285 50.2035872,3.58966639 C51.0556568,4.20050831 51.7580254,4.96076619 51.9842317,6.04097965 C52,6.11752868 51.9968853,6.19795362 52,6.23845678 C51.337344,6.02489466 50.690651,5.75610096 50.0170935,5.61211126 C48.6563517,5.32141873 47.616231,6.0000889 47.1503862,7.31169362 C46.8208102,8.23880902 47.0485739,9.10139067 47.330261,9.9568019 C47.6684025,10.9829466 48.0143307,12.0152926 48.4700527,12.992601 C49.6947203,15.6185235 50.234929,18.4155671 50.6413995,21.2459434 C50.7856498,22.2490265 50.8189384,23.2705201 50.8584563,24.2854246 C50.9544286,26.7625126 49.902433,28.7919341 48.2808336,30.5688407 C46.1789839,32.8720945 43.5262187,34.3344718 40.6303108,35.3891043 C39.5822087,35.7708805 38.4918632,36.0373486 37.4309128,36.3869549 C37.2302083,36.453039 37.0020553,36.6280359 36.9150379,36.8127225 C36.4647666,37.7669692 36.0637469,38.7446651 36.3438767,39.8367001 C36.3989683,40.0520064 36.4949405,40.2624678 36.6041502,40.4574255 C36.9319741,41.0434617 37.2874412,41.614188 37.6092303,42.2033249 C37.8260925,42.6006047 38.0898701,42.8172676 38.5806326,42.7056416 C38.9839884,42.6137828 39.4036965,42.5922715 39.9010778,42.5287068 C39.7574115,42.7254087 39.6585192,42.8610652 39.4652121,43.1257892 C40.5497175,43.1317969 41.5514883,43.1728814 42.5489763,43.1271458 C43.0224132,43.1056346 43.1845732,43.1104794 43.2172777,43.3682268 C42.9612869,43.4817907 42.7420887,43.5899283 42.5141304,43.6759733 C42.3842857,43.7250034 42.2410087,43.7600803 42.1029878,43.7625997 C41.5859448,43.772677 41.0683179,43.7666694 40.5113676,43.7666694 C40.5485495,43.9246123 40.5758033,44.0408893 40.5956596,44.125384 C40.2804892,44.1439883 39.9725216,44.1974757 39.6715621,44.1715072 C39.270153,44.1372055 38.8543383,44.0949581 38.4811563,43.9579451 C38.025629,43.7907 37.5946301,43.5918663 37.0898513,43.6534931 C36.9691561,43.6684153 36.7867505,43.6486482 36.7207574,43.5707426 C36.1747087,42.9261804 35.6006274,43.3804359 35.0652855,43.4713258 C35.3201083,44.0550364 35.5560481,44.6259565 35.8167109,45.185249 C36.2087759,46.0261256 36.3765812,46.1100388 37.2806277,45.9958935 C37.5541388,45.9615918 37.8299859,45.9443441 38.1023289,45.9034533 C38.3703892,45.8633377 38.6355295,45.8032613 39.0445307,45.7245805" id="Fill-1"></path></g><g id="Kreis" fill="#69F0AE" fill-rule="nonzero"><path d="M45.5,0 C70.6289561,0 91,20.3710439 91,45.5 C91,70.6289561 70.6289561,91 45.5,91 C20.3710439,91 0,70.6289561 0,45.5 C0,20.3710439 20.3710439,0 45.5,0 Z M17.9895723,23.061103 C12.99541,29.1766814 10,36.9885329 10,45.5 C10,65.1061086 25.8938914,81 45.5,81 C54.0114671,81 61.8233186,78.00459 67.938897,73.0104277 Z M45.5,10 C38.0142302,10 31.0696176,12.3169698 25.3441819,16.2728899 L74.7271101,65.6558181 C78.6830302,59.9303824 81,52.9857698 81,45.5 C81,25.8938914 65.1061086,10 45.5,10 Z" id="Combined-Shape"></path></g></g></g></g></g></g></svg> 