<?xml version="1.0" encoding="UTF-8"?> <svg xmlns="http://www.w3.org/2000/svg" xmlns:xlink="http://www.w3.org/1999/xlink" width="60px" height="60px" viewBox="0 0 60 60" version="1.1"><title>Icon Geprüft</title><g id="Wibsite" stroke="none" stroke-width="1" fill="none" fill-rule="evenodd"><g id="Desktop_1440px---Startseite" transform="translate(-734.000000, -1099.000000)"><g id="Warum-wir?" transform="translate(226.000000, 1018.000000)"><g id="Icon-Geprüft" transform="translate(508.000000, 81.000000)"><circle id="Oval" fill="#E2F5EF" cx="30" cy="30" r="30"></circle><path d="M31.2639077,17.4782384 L33.4869797,19.3609025 L36.3990732,19.5919803 C36.9557748,19.6361552 37.3978565,20.075835 37.4423151,20.6295539 L37.6745724,23.5222569 L39.569157,25.7321621 C39.9317677,26.155123 39.9316975,26.777451 39.5689913,27.2003309 L37.6745724,29.4090384 L37.4423176,32.3027147 C37.4051533,32.7657459 37.0899498,33.1490237 36.662204,33.2880024 L40.1105344,40.4314731 C40.2420393,40.7038938 40.1350157,41.0310152 39.86751,41.1742859 L39.8527252,41.1822044 C39.7119017,41.2576266 39.5456555,41.2705738 39.3947461,41.2178716 L35.985675,40.0273183 L34.7879104,43.4137379 C34.6198257,43.8889609 33.9580552,43.924969 33.7388561,43.4708188 L30.5003333,36.7613333 L27.261132,43.4708784 C27.0565093,43.8947013 26.4664423,43.8915582 26.2520257,43.5029061 L26.2121065,43.4137379 L25.0143589,40.0273664 L21.6064564,41.2178547 C21.4611849,41.2686026 21.3014332,41.2585873 21.1637178,41.190098 L21.1637178,41.190098 L21.1477956,41.1821796 C20.8700709,41.0440603 20.7550842,40.7098876 20.8894824,40.4314731 L20.8894824,40.4314731 L24.3464923,33.2724991 C23.9415429,33.1220638 23.6467866,32.7495202 23.6109247,32.3027147 L23.3786699,29.4090384 L21.4842509,27.2003309 C21.1215448,26.777451 21.1214746,26.155123 21.4840852,25.7321621 L23.3786699,23.5222569 L23.6109272,20.6295539 C23.6553857,20.075835 24.0974674,19.6361552 24.6541691,19.5919803 L27.5662626,19.3609025 L29.7893345,17.4782384 C30.2142772,17.118365 30.838965,17.118365 31.2639077,17.4782384 Z M30.5266211,19.8252364 L28.7607212,21.320733 C28.5786234,21.4749471 28.3522824,21.5681376 28.1138784,21.5870553 L25.801146,21.7705731 L25.6167206,24.0675424 C25.5976609,24.3049266 25.5037681,24.5302732 25.3484191,24.7114773 L23.8442552,26.465983 L25.3482534,28.219498 C25.5037068,28.4007415 25.5976621,28.6261754 25.6167231,28.8636572 L25.801146,31.1613932 L28.1134876,31.3440823 C28.3520317,31.3629288 28.5785214,31.4561351 28.7607212,31.6104356 L30.5266211,33.1059321 L32.2925211,31.6104356 C32.4747209,31.4561351 32.7012106,31.3629288 32.9397546,31.3440823 L35.2520962,31.1613932 L35.4365192,28.8636572 C35.4555801,28.6261754 35.5495354,28.4007415 35.7049889,28.219498 L37.208987,26.465983 L35.7048232,24.7114773 C35.5494742,24.5302732 35.4555814,24.3049266 35.4365217,24.0675424 L35.2520963,21.7705731 L32.9393639,21.5870553 C32.7009599,21.5681376 32.4746189,21.4749471 32.2925211,21.320733 L30.5266211,19.8252364 Z" id="Color" fill="#083F51"></path></g></g></g></g></svg> 