<?xml version="1.0" encoding="UTF-8"?> <svg xmlns="http://www.w3.org/2000/svg" xmlns:xlink="http://www.w3.org/1999/xlink" width="91px" height="91px" viewBox="0 0 91 91" version="1.1"><title>Icon Schabe</title><g id="Wibsite" stroke="none" stroke-width="1" fill="none" fill-rule="evenodd"><g id="Desktop_1440px---Startseite" transform="translate(-599.000000, -2147.000000)"><g id="Schädlinge-und-Co." transform="translate(70.000000, 1927.000000)"><g id="Icons-Schädlinge" transform="translate(203.000000, 220.000000)"><g id="Icon-Schabe" transform="translate(326.000000, 0.000000)"><g transform="translate(27.000000, 18.000000)" fill="#083F51" id="Fill-1"><path d="M15.3581694,16.001849 C15.2668984,16.2886823 15.213543,16.5577186 15.1017508,16.7867691 C14.890479,17.2201393 15.0267014,17.4542748 15.3401888,17.7235422 C17.1165521,19.2492364 20.2954001,19.4424617 22.1982138,18.1125353 C23.1468845,17.4494211 23.1470799,17.4491899 22.7472076,16.2345977 C22.7218003,16.1576312 22.687989,16.084825 22.6541777,16 C20.2416539,18.2449732 17.9231372,18.2458977 15.3581694,16.001849 M2.71798883,27.9850398 C1.81112267,26.8169824 1.25412532,25.5477765 0.788280041,24.2245323 C-0.197325997,21.4254305 -0.104234518,18.5578407 0.238652431,15.6720402 C0.492326712,13.5392121 0.917250528,11.4457745 1.67032181,9.43428506 C2.67377038,6.75434451 4.0860457,4.36003468 6.45231474,2.69534009 C8.34847181,1.36120912 10.4284845,0.720469951 12.7326926,1.29331491 C14.1207253,1.63832831 15.1080769,2.57182411 15.8722027,3.76957285 C17.0895678,5.67654879 17.6320196,7.81689868 17.9452336,10.0360296 C17.9590034,10.1338131 17.9650156,10.2329822 17.9809187,10.3303698 C18.0152462,10.5405845 18.0536464,10.7498095 18.0771132,10.8838164 C18.6847291,10.8563024 19.2682963,10.8299761 19.8951122,10.8016703 C20.0523981,9.97011482 20.1982414,9.04671407 20.4045941,8.13776312 C20.7492266,6.62192113 21.2621994,5.17179597 22.0872226,3.84558269 C23.6732687,1.29569022 25.833185,0.590619815 28.4558435,1.21215858 C31.094599,1.83745825 33.0223684,3.51125818 34.5052381,5.76403928 C36.0063382,8.04393848 36.930659,10.5740367 37.3503464,13.2634785 C37.6848939,15.4071934 37.9420592,17.5811935 37.9961686,19.7480676 C38.0714175,22.75105 37.0324778,25.4547436 35.3890253,27.9161559 C35.3034975,27.902102 35.2484184,27.9078423 35.2107939,27.8846831 C34.3702555,27.366866 34.4084618,27.3886397 34.8865253,26.5388735 C36.2200607,24.1679208 37.0144414,21.670879 36.8234099,18.8664327 C36.6546816,16.3923521 36.4386318,13.9380658 35.7840823,11.543756 C35.1031569,9.05324617 34.0787628,6.73692559 32.2910185,4.85429656 C30.7751789,3.25828794 28.9693981,2.25392881 26.7253117,2.27491069 C24.9082823,2.29193372 23.7159356,3.32895334 22.8633728,4.84143031 C21.7550024,6.80778893 21.3168906,8.98337254 21.0717497,11.2080458 C21.0556527,11.3543252 21.0824165,11.5764164 21.1760898,11.6542077 C22.3855033,12.6561916 23.0681741,14.0120962 23.6571716,15.4802341 C23.7884694,15.432728 23.9079368,15.401651 24.0169314,15.3484045 C24.9493977,14.8949188 25.8859368,14.4497466 26.8048273,13.9691427 C26.9679313,13.8838296 27.1296778,13.6609466 27.1645871,13.4764644 C27.4101159,12.177963 27.7008328,10.8962868 28.3357942,9.72743758 C28.783797,8.90221621 29.3479701,8.19180136 30.2779152,7.90082621 C30.4873711,7.83530731 30.71273,7.82323283 31.0127561,7.77295549 C31.0127561,8.12608452 31.0305986,8.41745556 31.0028651,8.70407599 C30.993362,8.80126565 30.8818462,8.94754499 30.7941851,8.9677351 C30.0380107,9.14251814 29.632287,9.70784129 29.2981274,10.3442257 C28.6945843,11.4936766 28.3945582,12.7413068 28.264812,14.026348 C28.2238905,14.4331194 28.0664108,14.6358123 27.7248814,14.8028756 C26.5183771,15.3923477 25.3244788,16.0081462 24.129223,16.6120681 C24.4701706,17.7706242 24.8258576,18.8953323 25.128211,20.0344901 C25.3642367,20.9238448 25.5506135,21.8278472 25.7236085,22.7326414 C25.7827604,23.0414313 25.911343,23.1708856 26.2032236,23.234623 C27.5600319,23.5317343 28.9086947,23.8680383 30.2688,24.1487204 C30.8114458,24.2607558 31.0519321,24.5398544 31.1525873,25.0879566 C31.4692922,26.8096585 31.9729559,28.4755408 32.7308757,30.0537346 C33.2093271,31.0497801 33.5780082,31.5230601 34.4478317,32.2598013 C34.283564,32.5664139 34.1167751,32.8783709 33.9412589,33.2057675 C33.1829512,32.812852 32.703918,32.1946783 32.2844245,31.5258313 C31.1989391,29.7944302 30.5981111,27.8654826 30.1683388,25.8803195 C30.0671018,25.4119881 29.8626885,25.2393824 29.4317525,25.1560487 C28.3092244,24.9393019 27.1948418,24.6801955 26.0286771,24.4272252 C26.1225443,25.305891 26.2187389,26.1338836 26.2978666,26.9634597 C26.5350559,29.4476353 26.5845108,31.935176 26.3839762,34.4239043 C26.3543033,34.7924728 26.4547645,35.0303994 26.7301602,35.271691 C27.9316221,36.324546 29.103799,37.4124368 30.304873,38.4654898 C30.6892632,38.8021896 30.7858456,39.1428482 30.6291416,39.6392875 C29.7375968,42.4664971 29.0081862,45.3356705 28.6552144,48.2903549 C28.4969589,49.6167661 28.3751642,50.9526786 28.7155299,52.2727557 C28.8045486,52.6181649 28.9560162,52.9469471 29.0944898,53.3262045 C28.839264,53.5247406 28.5615411,53.7406956 28.2475513,53.9849564 C27.6891963,53.3121506 27.5334621,52.5221629 27.4533646,51.7244555 C27.216951,49.3645877 27.5639107,47.0490588 28.0825078,44.7624296 C28.4643769,43.0795243 28.9323555,41.4164133 29.3846249,39.7509269 C29.479074,39.4031423 29.4294252,39.19174 29.1499568,38.9520319 C28.1757933,38.1159237 27.2289753,37.2465612 26.2270783,36.3498827 C26.0503984,37.2960468 25.9006763,38.1826302 25.7174025,39.0616919 C25.2003569,41.5393354 24.471916,43.9439383 23.2314721,46.1557453 C22.618232,47.2487826 21.8987124,48.2667998 20.8754819,49.006906 C19.4719339,50.0221519 18.0148583,49.877852 16.7439657,48.6670391 C15.3505026,47.3390443 14.4863033,45.6753394 13.7724081,43.9108819 C12.8612752,41.6584967 12.3192113,39.3045671 11.944712,36.9057046 C11.9196937,36.7449754 11.8855601,36.5858299 11.8405659,36.3467156 C11.1152282,36.9916115 10.4348846,37.589991 9.76191077,38.19708 C9.36413864,38.5561473 8.78270477,38.8655311 8.64287361,39.3138704 C8.5113819,39.7358833 8.84224453,40.3136768 8.98479086,40.8184297 C9.68258907,43.2921143 10.303005,45.7889583 10.5169215,48.3570614 C10.6239767,49.6438842 10.5518308,50.9554498 10.4517574,52.2470232 C10.4069571,52.8262023 10.094131,53.3836077 9.88661456,54 C9.70256495,53.89034 9.61800686,53.8493659 9.54372761,53.794338 C8.9324269,53.3408522 9.02396686,53.358865 9.17427081,52.5989645 C9.36084165,51.6563634 9.48884243,50.67358 9.4471452,49.7171229 C9.31216256,46.6193262 8.55792764,43.6315854 7.72689224,40.6646285 C7.62507344,40.3004147 7.5321759,39.9312524 7.39855084,39.579113 C7.23408922,39.1462133 7.33745955,38.8291097 7.67607981,38.5302169 C8.92272987,37.4296578 10.1631738,36.321379 11.3871328,35.1946915 C11.5391823,35.0547463 11.6708679,34.7805962 11.6570981,34.5796848 C11.4245634,31.2259488 11.5578006,27.8886419 12.0341186,24.5636075 C12.0407126,24.5176848 12.0271368,24.4687931 12.0180216,24.3630919 C11.0186457,24.5742963 10.0404094,24.8456752 9.04433062,24.9717644 C8.21426493,25.0768718 7.89232356,25.4369288 7.73096499,26.2890703 C7.38439317,28.1206302 6.76921365,29.8785557 5.77197118,31.4682301 C5.34394431,32.1505372 4.85230494,32.7750451 4.10194882,33.1980477 C3.91149917,32.857389 3.73152231,32.535139 3.55445456,32.2182334 C5.32222297,30.7324787 5.87689303,28.6303316 6.500412,26.5709401 C6.6714676,26.0060129 6.78841377,25.4214893 6.8917841,24.8387472 C6.96276635,24.4389038 7.17144642,24.2364089 7.54478204,24.1516896 C8.94658456,23.8332004 10.3427628,23.4866035 11.7496078,23.1952325 C12.1551376,23.111107 12.2709201,22.9252392 12.3632358,22.5368764 C12.8300508,20.5715075 13.341666,18.6172234 13.8571601,16.5821788 C13.2216168,16.265867 12.4861941,15.8998717 11.7507714,15.5336785 C11.27232,15.295554 10.7973595,15.0493138 10.3140596,14.8214822 C9.94091793,14.6457094 9.79565643,14.3539425 9.69965584,13.9491506 C9.42794509,12.802273 9.1517737,11.650051 8.76699558,10.5397927 C8.48597568,9.72921906 7.94197235,9.0805622 7.0184273,8.92141661 L7.0184273,7.81195012 C7.87661437,7.78008142 8.49586665,8.19457255 9.0107789,8.7973068 C9.89883282,9.83729555 10.3759267,11.104522 10.5469822,12.4261826 C10.687977,13.5140734 11.1439314,14.1126509 12.1287616,14.465384 C12.8853238,14.736565 13.589716,15.1597656 14.3449207,15.5291258 C14.5859888,15.0200183 14.771396,14.4849803 15.071616,14.0285254 C15.5543341,13.2951493 16.0913556,12.5950274 16.6512621,11.9206381 C16.8461723,11.6856806 16.9520639,11.4964477 16.9171546,11.187064 C16.6665834,8.96159889 16.224011,6.79531857 15.1117617,4.82599081 C14.1325557,3.09162054 12.7144622,2.11418155 10.7001953,2.3002473 C8.64500696,2.49027189 6.96315423,3.47523268 5.57143661,5.0019615 C3.69157055,7.06452007 2.65088539,9.57007347 2.0009905,12.2551605 C1.39065949,14.7763514 1.0681363,17.3482154 1.17014905,19.9479893 C1.26905874,22.4670028 2.00060262,24.8035135 3.41889009,26.8888354 C3.60138818,27.1570472 3.58160624,27.3171825 3.3323926,27.4941429 C3.13651261,27.6330984 2.95556604,27.7938275 2.71798883,27.9850398"></path></g><g id="Kreis-Copy" fill="#69F0AE" fill-rule="nonzero"><path d="M45.5,0 C70.6289561,0 91,20.3710439 91,45.5 C91,70.6289561 70.6289561,91 45.5,91 C20.3710439,91 0,70.6289561 0,45.5 C0,20.3710439 20.3710439,0 45.5,0 Z M17.9895723,23.061103 C12.99541,29.1766814 10,36.9885329 10,45.5 C10,65.1061086 25.8938914,81 45.5,81 C54.0114671,81 61.8233186,78.00459 67.938897,73.0104277 Z M45.5,10 C38.0142302,10 31.0696176,12.3169698 25.3441819,16.2728899 L74.7271101,65.6558181 C78.6830302,59.9303824 81,52.9857698 81,45.5 C81,25.8938914 65.1061086,10 45.5,10 Z" id="Combined-Shape"></path></g></g></g></g></g></g></svg> 