<?xml version="1.0" encoding="UTF-8"?> <svg xmlns="http://www.w3.org/2000/svg" xmlns:xlink="http://www.w3.org/1999/xlink" width="91px" height="91px" viewBox="0 0 91 91" version="1.1"><title>Icon Bettwanze</title><g id="Wibsite" stroke="none" stroke-width="1" fill="none" fill-rule="evenodd"><g id="Desktop_1440px---Startseite" transform="translate(-928.000000, -2148.000000)"><g id="Schädlinge-und-Co." transform="translate(70.000000, 1927.000000)"><g id="Icons-Schädlinge" transform="translate(203.000000, 220.000000)"><g id="Bettwanzen" transform="translate(652.000000, 1.000000)"><g id="Icon-Bettwanze" transform="translate(3.000000, 0.000000)"><g transform="translate(16.000000, 21.000000)" fill="#083F51" id="Fill-1"><path d="M18.5529986,23.08667 C18.3665374,22.8599331 18.2099863,22.6690305 18.0097367,22.4258696 C14.0658377,25.4301866 10.130636,28.4278913 6.16255431,31.4503387 C4.97357228,30.5135293 3.79498457,29.5850386 2.61639685,28.655908 C2.21313997,28.3380924 1.81688333,28.0108917 1.40641407,27.7026745 C1.01036956,27.4053357 0.675842417,26.920507 0.0345769975,27.1800919 C0.121337684,27.0623508 0.208098371,26.9443965 0.313314265,26.8012728 C0.207461985,26.6686008 0.103518864,26.538915 0,26.4092292 C0.0220613972,26.3576108 0.0439106655,26.3057791 0.0659720626,26.2541608 C0.396256633,26.3902456 0.765148649,26.4708726 1.05067404,26.6713737 C2.78525139,27.888458 4.50073715,29.1330579 6.21007117,30.3597407 C7.77133928,28.9118668 9.25772591,27.4682589 10.8153878,26.107411 C12.2676217,24.8387083 13.8000403,23.663004 15.2891846,22.4371744 C16.5640788,21.3877432 18.0453744,20.9622116 19.6632809,20.948987 C20.019233,20.9460009 20.2882124,20.856202 20.5376758,20.5723009 C20.7867151,20.2894664 21.124212,20.0851259 21.4048585,19.8607353 C20.6117088,19.5550778 19.7714666,19.3236484 19.0256216,18.917527 C18.3094747,18.5276163 17.651239,18.000981 17.0430657,17.4502429 C16.6224142,17.0692908 16.4989553,16.5172729 16.6930531,15.9264345 C16.7390851,15.7865104 16.6919925,15.5753443 16.6132927,15.4401127 C15.3324589,13.2318278 14.0442006,11.0280221 12.7415175,8.83274838 C12.6333318,8.6501644 12.4313852,8.49168321 12.236863,8.39804493 C10.6021984,7.61331777 9.06574933,6.59822763 7.1090731,6.25630927 C7.38271928,6.11275902 7.53354287,6.03362508 7.71809494,5.93678731 C7.62009143,5.77873272 7.53990673,5.6494735 7.38314354,5.39714074 C8.18753602,5.66184485 8.908774,5.83056439 9.57040379,6.13195593 C10.7595979,6.6733089 12.0629174,7.11334482 13.0380736,7.93326633 C14.011957,8.75190804 14.6477071,9.97987061 15.4204924,11.0363408 C16.2477947,12.1666124 17.0759457,13.2966707 17.87355,14.4478456 C18.1094373,14.7880576 18.3347181,14.9247823 18.7449752,14.8042683 C19.0071664,14.7272673 19.2986314,14.7511568 19.5769444,14.7298269 C19.5190333,13.7672084 19.4513642,12.8331719 19.4087263,11.8978556 C19.347421,10.547886 19.8109225,9.50698664 21.0472093,8.80928548 C22.3916817,8.0503675 23.7147292,7.27075951 25.2668757,7.03314438 C25.557068,6.98877818 25.8648669,7.01138787 26.158241,7.0504216 C26.5844078,7.10715914 26.8960251,7.30830014 26.8470233,7.77798462 L28.7871535,7.77798462 C28.8022146,7.7393775 28.8174879,7.70077037 28.8327612,7.66237654 C28.3614109,7.25988126 27.8805149,6.86826422 27.4250743,6.44870501 C27.2990698,6.33267033 27.1486705,6.09846798 27.1891871,5.98094021 C27.2447648,5.81947284 27.4770459,5.60382751 27.6232027,5.61150628 C28.0500058,5.63411597 28.2757109,5.43126859 28.470233,5.00189762 C28.0353689,4.80395611 27.6038989,4.53541262 27.1342457,4.4061534 C25.1614477,3.86309404 23.1774069,3.3618413 21.1978207,2.84352463 C21.0639674,2.80833029 20.8649906,2.79787864 20.8136554,2.70829304 C20.5228268,2.20042803 20.0548707,2.29854559 19.6062182,2.29897218 C17.7324843,2.30153177 15.8587505,2.31134353 13.9854409,2.28873383 C13.687612,2.28532105 13.3583881,2.18763009 13.1010758,2.03533457 C12.2949863,1.55839792 11.5086248,1.04605362 10.7337182,0.518991696 C10.5833189,0.416821456 10.519256,0.186458493 10.4153129,0.0149660649 C10.6202293,0.0450412295 10.8592985,0.0166724572 11.0239105,0.115003315 C11.782271,0.568263775 12.5113577,1.07186281 13.2705668,1.52384347 C13.4988174,1.65950166 13.7904945,1.75100695 14.0541706,1.75377984 C15.874448,1.77340335 17.6953618,1.77297675 19.5158513,1.75868572 C20.0659014,1.75441974 20.6148907,1.67869858 21.1651529,1.65310269 C21.2992183,1.64691702 21.4394355,1.70066838 21.572016,1.74226169 C23.473963,2.3392857 25.3765463,2.93502992 27.2753114,3.54250559 C27.5394118,3.62697201 27.7856933,3.76881587 28.0379145,3.88932983 C28.1480093,3.94201469 28.2466492,4.04695782 28.3595018,4.06188875 C28.8777325,4.12971784 28.8787931,4.12139918 28.9759481,4.63182378 C29.1208321,4.56527448 29.2602007,4.50149807 29.4044483,4.43516207 C29.3825991,4.2274088 29.362659,4.03821256 29.3401733,3.82192733 C29.4869665,3.79078567 29.6161529,3.76348339 29.7839468,3.72786245 C29.7839468,3.28228076 29.7714312,2.83989855 29.7926441,2.39900943 C29.7981594,2.28788063 29.9120726,2.18208431 29.9761355,2.0737284 C30.05929,2.1844306 30.2003557,2.28852053 30.2145683,2.4075414 C30.2497817,2.70573345 30.2319629,3.01053778 30.2266596,3.31256922 C30.2217807,3.59668354 30.1891128,3.89380911 30.6589782,3.76604298 C30.6214314,4.0281875 30.5942789,4.21802365 30.5624596,4.43836156 C30.6912218,4.49979168 30.8263478,4.56463459 31.0206578,4.65720637 C30.98799,4.18922828 31.1441168,4.03693276 31.5936178,4.06060896 C31.8454147,4.0740468 32.0974237,3.75537803 32.3746761,3.66600573 C34.3731417,3.02248253 36.3781833,2.39900943 38.3815278,1.77041716 C38.4818648,1.73884891 38.5947173,1.67848528 38.6869933,1.69896199 C40.0787705,2.01080518 41.4864573,1.77382995 42.8852348,1.82694141 C43.9617885,1.86768153 45.1019809,2.0517586 46.1025926,1.77084376 C47.0970525,1.49142202 47.9521437,0.710960832 48.8687524,0.151050852 C48.9593314,0.095806401 49.0490619,0.0147527658 49.146429,0.00216812248 C49.2527055,-0.011269717 49.3674672,0.0412018468 49.4784106,0.0648780402 C49.447864,0.187738287 49.4580462,0.373095153 49.3806192,0.423860324 C48.4056752,1.06461064 47.4209732,1.69043002 46.4296952,2.30579775 C46.3204489,2.37362685 46.1564733,2.36893427 46.0179532,2.36850767 C43.9153323,2.3631752 41.8124993,2.35208365 39.7100906,2.34675117 C39.6156933,2.34653787 39.4716578,2.35954911 39.4345353,2.41927284 C39.1430703,2.88810413 38.6466888,2.89706269 38.1944302,3.01544366 C36.2827253,3.51584321 34.3691112,4.00771079 32.4652551,4.53690571 C32.1245762,4.63161049 31.8282322,4.88778263 31.4939172,5.07953847 C31.6298918,5.39052847 31.7843216,5.60148122 32.1848208,5.59294926 C32.3422204,5.58953647 32.5861685,5.81414036 32.6377158,5.9826466 C32.6744141,6.10124087 32.4675885,6.31198032 32.3441295,6.46022316 C32.1487589,6.6944255 31.9412969,6.92030918 31.7219557,7.13190183 C31.5329489,7.31384591 31.3201837,7.47083401 31.0429313,7.70098367 C31.7166525,7.73169873 32.31528,7.75900101 32.9223927,7.78651659 C33.0439425,7.13126193 33.2601018,6.87594298 33.9807033,6.89215371 C34.5884524,6.90559155 35.2104141,7.01864004 35.794829,7.19354525 C37.0752386,7.57663033 38.2192493,8.24254993 39.2928332,9.04092824 C39.9992222,9.56649707 40.3706598,10.2573727 40.3872058,11.1252865 C40.4084187,12.2404138 40.3922969,13.3563944 40.3922969,14.5188742 C40.833737,14.6513329 41.2130233,14.5781713 41.5802183,14.0485498 C42.9838747,12.0234887 44.4405633,10.0349018 45.8987368,8.04866111 C46.0981379,7.77713143 46.3866331,7.53205083 46.6867953,7.3825282 C48.3108536,6.57369824 49.8632123,5.59316256 51.6688528,5.20346521 C51.7358855,5.18917418 51.8033424,5.17850922 51.9439838,5.15248674 C51.8455561,5.32035309 51.7749172,5.44086704 51.672459,5.61577226 C51.8408892,5.70727754 51.9857732,5.78577159 52.1868713,5.8949807 C52.0205624,5.95470443 51.8858606,6.01933404 51.7437342,6.0513289 C50.0121267,6.44209274 48.542074,7.43009389 46.9631992,8.16896176 C46.8446192,8.22441951 46.7351607,8.34216058 46.6672795,8.45798196 C45.3467776,10.7031677 44.0330638,12.9526193 42.7235926,15.1916194 C43.317129,16.1297085 43.2596421,16.7196937 42.4770989,17.522338 C41.6644334,18.3559106 40.6264871,18.8072514 39.5626611,19.2067605 C39.397837,19.2686172 39.2287703,19.3193824 39.0544004,19.377613 C39.3976249,19.738515 39.7223941,20.1006968 40.0738915,20.4345098 C40.1595916,20.51599 40.3326887,20.5311342 40.4659056,20.5313475 C42.1898765,20.5358268 43.6783844,21.1831894 44.9634608,22.2848789 C47.5155826,24.4735404 50.0420369,26.6929169 52.5663698,28.9144264 C52.9225341,29.227976 53.2061503,29.6244989 53.5495869,30.0120632 C54.0881819,29.6379367 54.5385314,29.3363319 54.9767896,29.018303 C56.3074737,28.0529116 57.6245815,27.0687498 58.9690539,26.1236218 C59.2072746,25.956182 59.5511354,25.9403979 59.8459945,25.8546517 C59.8672074,25.8945386 59.8882081,25.9342122 59.9096331,25.9738858 C59.8084477,26.0969594 59.7072622,26.2202462 59.583379,26.3712619 C59.6856251,26.5045738 59.7861742,26.6355394 60,26.9134681 C59.2195781,26.5288899 58.8508982,27.0043335 58.4296104,27.3364401 C56.9975287,28.4656452 55.5584468,29.5861051 54.1426991,30.7355736 C53.8334152,30.9866266 53.642075,30.9736153 53.3355489,30.7385598 C49.5422614,27.830654 45.7379431,24.9372525 41.938716,22.041718 C41.3419976,22.5504362 41.3530283,22.5433974 41.7562852,23.1916131 C42.8453546,24.942585 43.6771117,26.7842089 43.7488112,28.8997088 C43.7545387,29.0645889 43.919787,29.3098828 44.06955,29.3700331 C45.1764381,29.8147616 45.6104537,30.683102 45.91401,31.7975895 C46.9067729,35.4418036 47.9992363,39.0585021 49.0685777,42.6813863 C49.1387924,42.9185749 49.2985254,43.1593895 49.4818047,43.3268292 C50.0564616,43.8526114 50.6595439,44.3474651 51.2564743,44.8478647 C51.6607919,45.1867968 51.9891673,45.6893294 52.6949199,45.4331572 C52.5629757,45.7874469 51.9518326,45.8911103 52.3813935,46.3887369 C52.1486882,46.2923258 51.8869212,46.2366547 51.6879444,46.0928912 C50.6833023,45.368101 49.6875696,44.6300864 48.7073223,43.8726615 C48.5121638,43.721859 48.3375818,43.4870168 48.2557001,43.2545208 C46.9534413,39.5597549 45.6740924,35.8566702 44.3678031,32.1631841 C44.2420107,31.807188 43.9734556,31.5021703 43.7305681,31.1077804 C43.4070717,32.5607735 43.1962156,33.8943191 42.8095048,35.1741133 C41.378908,39.9099919 38.9315778,43.9925355 34.9624355,47.0314069 C33.5693856,48.0981154 32.0316638,48.8941475 30.2334478,48.9907719 C28.2351943,49.0980613 26.5494066,48.2576631 25.0093513,47.1028621 C21.7888116,44.6887436 19.6410073,41.4553434 18.1049826,37.7731621 C17.2322846,35.6815517 16.6860529,33.502702 16.4234374,31.2496243 C16.3763448,31.2206156 16.3294643,31.1916069 16.2825839,31.1628116 C15.9476325,31.6344157 15.4873129,32.0605872 15.298094,32.5855162 C13.9767436,36.2540464 12.7162742,39.9449729 11.4178337,43.6222484 C11.3249212,43.8854594 11.1272172,44.1503768 10.9070275,44.3222958 C9.94396264,45.0731085 8.96010918,45.7976853 7.97010398,46.5126637 C7.76921799,46.657707 7.5087238,46.7195638 7.18862141,46.7978445 C7.79191577,46.3087498 7.06919289,46.218311 6.98476562,45.8670075 C7.6493652,46.0950242 7.97943765,45.6285392 8.37293661,45.3002719 C8.65824987,45.0618036 8.91534999,44.7806755 9.22548233,44.5820941 C10.2415794,43.931532 10.6942623,42.9723262 11.0077887,41.8286168 C11.9731869,38.3059831 13.0378615,34.8110783 14.0388974,31.2982565 C14.1750841,30.8196134 14.3755458,30.4625508 14.833744,30.2620497 C15.8180218,29.8311857 16.3988305,29.2418404 16.4338317,27.9944676 C16.4792273,26.3723284 17.3389854,24.9592223 18.207865,23.607333 C18.3126567,23.4441592 18.4221151,23.2839716 18.5529986,23.08667"></path></g><g id="Kreis" fill="#69F0AE" fill-rule="nonzero"><path d="M45.5,0 C70.6289561,0 91,20.3710439 91,45.5 C91,70.6289561 70.6289561,91 45.5,91 C20.3710439,91 0,70.6289561 0,45.5 C0,20.3710439 20.3710439,0 45.5,0 Z M17.9895723,23.061103 C12.99541,29.1766814 10,36.9885329 10,45.5 C10,65.1061086 25.8938914,81 45.5,81 C54.0114671,81 61.8233186,78.00459 67.938897,73.0104277 Z M45.5,10 C38.0142302,10 31.0696176,12.3169698 25.3441819,16.2728899 L74.7271101,65.6558181 C78.6830302,59.9303824 81,52.9857698 81,45.5 C81,25.8938914 65.1061086,10 45.5,10 Z" id="Combined-Shape"></path></g></g></g></g></g></g></g></svg> 