<?xml version="1.0" encoding="UTF-8"?> <svg xmlns="http://www.w3.org/2000/svg" xmlns:xlink="http://www.w3.org/1999/xlink" width="60px" height="60px" viewBox="0 0 60 60" version="1.1"><title>82D15E1F-A6BD-47A3-8DF7-058C20AE46DC</title><g id="Wibsite" stroke="none" stroke-width="1" fill="none" fill-rule="evenodd"><g id="Desktop_1440px---Startseite" transform="translate(-226.000000, -1256.000000)"><g id="Warum-wir?" transform="translate(226.000000, 1018.000000)"><g id="Icon-Company" transform="translate(0.000000, 238.000000)"><circle id="Oval" fill="#E2F5EF" cx="30" cy="30" r="30"></circle><path d="M26.5946792,11 C26.9369402,11 27.2197978,11.2543359 27.2645639,11.5843195 L27.2707355,11.6760563 L27.2705352,12.7018592 L28.2973396,12.7026604 C28.6396006,12.7026604 28.9224582,12.9569963 28.9672243,13.2869799 L28.9733959,13.3787167 L28.9732958,14.972507 L32.8377673,14.9728743 C33.1800283,14.9728743 33.462886,15.2272102 33.5076521,15.5571938 L33.5138237,15.6489306 L33.5136901,22.9178884 L45.3239437,22.9186228 C45.6662046,22.9186228 45.9490623,23.1729587 45.9938284,23.5029423 L46,23.5946792 L46,47.4319249 C46,47.7741859 45.7456641,48.0570435 45.4156805,48.1018096 L45.3239437,48.1079812 L14.6760563,48.1079812 C14.3337954,48.1079812 14.0509377,47.8536453 14.0061716,47.5236617 L14,47.4319249 L14,30.4053208 C14,30.0630598 14.2543359,29.7802022 14.5843195,29.7354361 L14.6760563,29.7292645 L19.6752676,29.7289306 L19.6755347,15.6489306 C19.6755347,15.3066696 19.9298706,15.023812 20.2598542,14.9790459 L20.351591,14.9728743 L24.215662,14.972507 L24.2159624,13.3787167 C24.2159624,13.0364558 24.4702983,12.7535981 24.8002819,12.708832 L24.8920188,12.7026604 L25.9184225,12.7018592 L25.9186228,11.6760563 C25.9186228,11.3026807 26.2213036,11 26.5946792,11 Z M32.1615775,16.3246197 L21.0273803,16.3246197 L21.0273803,46.7552676 L32.1615775,46.7552676 L32.1615775,16.3246197 Z M33.5136901,24.270001 L33.5136901,46.7547334 L36.7019718,46.7547334 L36.7021388,44.3103808 C36.7021388,43.9681198 36.9564747,43.6852622 37.2864583,43.6404961 L37.3781951,43.6343245 L40.7835159,43.6343245 C41.1257769,43.6343245 41.4086345,43.8886604 41.4534007,44.218644 L41.4595722,44.3103808 L41.4587042,46.7547334 L44.6478873,46.7552676 L44.6478873,24.2705352 L33.5136901,24.270001 Z M19.6752676,31.0806761 L15.3521127,31.0806761 L15.3521127,46.7552676 L19.6752676,46.7552676 L19.6752676,31.0806761 Z M18.0813772,42.4407929 C18.3026368,42.4407929 18.4866579,42.6002297 18.5248199,42.8104825 L18.5320814,42.8914971 L18.5320814,44.0266041 C18.5320814,44.2478637 18.3726446,44.4318849 18.1623918,44.4700468 L18.0813772,44.4773083 L16.9462702,44.4773083 C16.7250106,44.4773083 16.5409894,44.3178715 16.5028274,44.1076187 L16.495566,44.0266041 L16.495566,42.8914971 C16.495566,42.6702375 16.6550028,42.4862163 16.8652556,42.4480544 L16.9462702,42.4407929 L18.0813772,42.4407929 Z M24.8920188,41.305686 C25.1132784,41.305686 25.2972996,41.4651227 25.3354616,41.6753755 L25.342723,41.7563902 L25.342723,42.8914971 C25.342723,43.1127567 25.1832862,43.2967779 24.9730334,43.3349399 L24.8920188,43.3422014 L23.7569118,43.3422014 C23.5356522,43.3422014 23.3516311,43.1827646 23.3134691,42.9725118 L23.3062076,42.8914971 L23.3062076,41.7563902 C23.3062076,41.5351306 23.4656444,41.3511094 23.6758972,41.3129474 L23.7569118,41.305686 L24.8920188,41.305686 Z M29.4324465,41.305686 C29.6537061,41.305686 29.8377273,41.4651227 29.8758893,41.6753755 L29.8831508,41.7563902 L29.8831508,42.8914971 C29.8831508,43.1127567 29.723714,43.2967779 29.5134612,43.3349399 L29.4324465,43.3422014 L28.2973396,43.3422014 C28.07608,43.3422014 27.8920588,43.1827646 27.8538968,42.9725118 L27.8466354,42.8914971 L27.8466354,41.7563902 C27.8466354,41.5351306 28.0060721,41.3511094 28.2163249,41.3129474 L28.2973396,41.305686 L29.4324465,41.305686 Z M18.0813772,37.9003652 C18.3026368,37.9003652 18.4866579,38.0598019 18.5248199,38.2700547 L18.5320814,38.3510694 L18.5320814,39.4861763 C18.5320814,39.7074359 18.3726446,39.8914571 18.1623918,39.9296191 L18.0813772,39.9368805 L16.9462702,39.9368805 C16.7250106,39.9368805 16.5409894,39.7774438 16.5028274,39.567191 L16.495566,39.4861763 L16.495566,38.3510694 C16.495566,38.1298098 16.6550028,37.9457886 16.8652556,37.9076266 L16.9462702,37.9003652 L18.0813772,37.9003652 Z M24.8920188,36.7652582 C25.1132784,36.7652582 25.2972996,36.924695 25.3354616,37.1349478 L25.342723,37.2159624 L25.342723,38.3510694 C25.342723,38.572329 25.1832862,38.7563502 24.9730334,38.7945122 L24.8920188,38.8017736 L23.7569118,38.8017736 C23.5356522,38.8017736 23.3516311,38.6423368 23.3134691,38.432084 L23.3062076,38.3510694 L23.3062076,37.2159624 C23.3062076,36.9947028 23.4656444,36.8106817 23.6758972,36.7725197 L23.7569118,36.7652582 L24.8920188,36.7652582 Z M29.4324465,36.7652582 C29.6537061,36.7652582 29.8377273,36.924695 29.8758893,37.1349478 L29.8831508,37.2159624 L29.8831508,38.3510694 C29.8831508,38.572329 29.723714,38.7563502 29.5134612,38.7945122 L29.4324465,38.8017736 L28.2973396,38.8017736 C28.07608,38.8017736 27.8920588,38.6423368 27.8538968,38.432084 L27.8466354,38.3510694 L27.8466354,37.2159624 C27.8466354,36.9947028 28.0060721,36.8106817 28.2163249,36.7725197 L28.2973396,36.7652582 L29.4324465,36.7652582 Z M37.3781951,35.6301513 C37.5994547,35.6301513 37.7834759,35.789588 37.8216379,35.9998408 L37.8288993,36.0808555 L37.8288993,37.2159624 C37.8288993,37.4372221 37.6694626,37.6212432 37.4592098,37.6594052 L37.3781951,37.6666667 L36.2430882,37.6666667 C36.0218285,37.6666667 35.8378074,37.5072299 35.7996454,37.2969771 L35.7923839,37.2159624 L35.7923839,36.0808555 C35.7923839,35.8595959 35.9518207,35.6755747 36.1620735,35.6374127 L36.2430882,35.6301513 L37.3781951,35.6301513 Z M41.9186228,35.6301513 C42.1398825,35.6301513 42.3239036,35.789588 42.3620656,35.9998408 L42.3693271,36.0808555 L42.3693271,37.2159624 C42.3693271,37.4372221 42.2098903,37.6212432 41.9996375,37.6594052 L41.9186228,37.6666667 L40.7835159,37.6666667 C40.5622563,37.6666667 40.3782351,37.5072299 40.3400731,37.2969771 L40.3328117,37.2159624 L40.3328117,36.0808555 C40.3328117,35.8595959 40.4922484,35.6755747 40.7025013,35.6374127 L40.7835159,35.6301513 L41.9186228,35.6301513 Z M18.0813772,33.3599374 C18.3026368,33.3599374 18.4866579,33.5193742 18.5248199,33.729627 L18.5320814,33.8106416 L18.5320814,34.9457486 C18.5320814,35.1670082 18.3726446,35.3510294 18.1623918,35.3891913 L18.0813772,35.3964528 L16.9462702,35.3964528 C16.7250106,35.3964528 16.5409894,35.237016 16.5028274,35.0267632 L16.495566,34.9457486 L16.495566,33.8106416 C16.495566,33.589382 16.6550028,33.4053608 16.8652556,33.3671989 L16.9462702,33.3599374 L18.0813772,33.3599374 Z M24.8920188,32.2248305 C25.1132784,32.2248305 25.2972996,32.3842672 25.3354616,32.59452 L25.342723,32.6755347 L25.342723,33.8106416 C25.342723,34.0319012 25.1832862,34.2159224 24.9730334,34.2540844 L24.8920188,34.2613459 L23.7569118,34.2613459 C23.5356522,34.2613459 23.3516311,34.1019091 23.3134691,33.8916563 L23.3062076,33.8106416 L23.3062076,32.6755347 C23.3062076,32.4542751 23.4656444,32.2702539 23.6758972,32.2320919 L23.7569118,32.2248305 L24.8920188,32.2248305 Z M29.4324465,32.2248305 C29.6537061,32.2248305 29.8377273,32.3842672 29.8758893,32.59452 L29.8831508,32.6755347 L29.8831508,33.8106416 C29.8831508,34.0319012 29.723714,34.2159224 29.5134612,34.2540844 L29.4324465,34.2613459 L28.2973396,34.2613459 C28.07608,34.2613459 27.8920588,34.1019091 27.8538968,33.8916563 L27.8466354,33.8106416 L27.8466354,32.6755347 C27.8466354,32.4542751 28.0060721,32.2702539 28.2163249,32.2320919 L28.2973396,32.2248305 L29.4324465,32.2248305 Z M37.3781951,31.0897235 C37.5994547,31.0897235 37.7834759,31.2491603 37.8216379,31.4594131 L37.8288993,31.5404278 L37.8288993,32.6755347 C37.8288993,32.8967943 37.6694626,33.0808155 37.4592098,33.1189775 L37.3781951,33.1262389 L36.2430882,33.1262389 C36.0218285,33.1262389 35.8378074,32.9668022 35.7996454,32.7565493 L35.7923839,32.6755347 L35.7923839,31.5404278 C35.7923839,31.3191681 35.9518207,31.135147 36.1620735,31.096985 L36.2430882,31.0897235 L37.3781951,31.0897235 Z M41.9186228,31.0897235 C42.1398825,31.0897235 42.3239036,31.2491603 42.3620656,31.4594131 L42.3693271,31.5404278 L42.3693271,32.6755347 C42.3693271,32.8967943 42.2098903,33.0808155 41.9996375,33.1189775 L41.9186228,33.1262389 L40.7835159,33.1262389 C40.5622563,33.1262389 40.3782351,32.9668022 40.3400731,32.7565493 L40.3328117,32.6755347 L40.3328117,31.5404278 C40.3328117,31.3191681 40.4922484,31.135147 40.7025013,31.096985 L40.7835159,31.0897235 L41.9186228,31.0897235 Z M24.8920188,27.6844027 C25.1132784,27.6844027 25.2972996,27.8438395 25.3354616,28.0540923 L25.342723,28.1351069 L25.342723,29.2702139 C25.342723,29.4914735 25.1832862,29.6754947 24.9730334,29.7136567 L24.8920188,29.7209181 L23.7569118,29.7209181 C23.5356522,29.7209181 23.3516311,29.5614813 23.3134691,29.3512285 L23.3062076,29.2702139 L23.3062076,28.1351069 C23.3062076,27.9138473 23.4656444,27.7298262 23.6758972,27.6916642 L23.7569118,27.6844027 L24.8920188,27.6844027 Z M29.4324465,27.6844027 C29.6537061,27.6844027 29.8377273,27.8438395 29.8758893,28.0540923 L29.8831508,28.1351069 L29.8831508,29.2702139 C29.8831508,29.4914735 29.723714,29.6754947 29.5134612,29.7136567 L29.4324465,29.7209181 L28.2973396,29.7209181 C28.07608,29.7209181 27.8920588,29.5614813 27.8538968,29.3512285 L27.8466354,29.2702139 L27.8466354,28.1351069 C27.8466354,27.9138473 28.0060721,27.7298262 28.2163249,27.6916642 L28.2973396,27.6844027 L29.4324465,27.6844027 Z M37.3781951,26.5492958 C37.5994547,26.5492958 37.7834759,26.7087325 37.8216379,26.9189853 L37.8288993,27 L37.8288993,28.1351069 C37.8288993,28.3563666 37.6694626,28.5403877 37.4592098,28.5785497 L37.3781951,28.5858112 L36.2430882,28.5858112 C36.0218285,28.5858112 35.8378074,28.4263744 35.7996454,28.2161216 L35.7923839,28.1351069 L35.7923839,27 C35.7923839,26.7787404 35.9518207,26.5947192 36.1620735,26.5565572 L36.2430882,26.5492958 L37.3781951,26.5492958 Z M41.9186228,26.5492958 C42.1398825,26.5492958 42.3239036,26.7087325 42.3620656,26.9189853 L42.3693271,27 L42.3693271,28.1351069 C42.3693271,28.3563666 42.2098903,28.5403877 41.9996375,28.5785497 L41.9186228,28.5858112 L40.7835159,28.5858112 C40.5622563,28.5858112 40.3782351,28.4263744 40.3400731,28.2161216 L40.3328117,28.1351069 L40.3328117,27 C40.3328117,26.7787404 40.4922484,26.5947192 40.7025013,26.5565572 L40.7835159,26.5492958 L41.9186228,26.5492958 Z M24.8920188,23.143975 C25.1132784,23.143975 25.2972996,23.3034117 25.3354616,23.5136645 L25.342723,23.5946792 L25.342723,24.7297861 C25.342723,24.9510457 25.1832862,25.1350669 24.9730334,25.1732289 L24.8920188,25.1804903 L23.7569118,25.1804903 C23.5356522,25.1804903 23.3516311,25.0210536 23.3134691,24.8108008 L23.3062076,24.7297861 L23.3062076,23.5946792 C23.3062076,23.3734196 23.4656444,23.1893984 23.6758972,23.1512364 L23.7569118,23.143975 L24.8920188,23.143975 Z M29.4324465,23.143975 C29.6537061,23.143975 29.8377273,23.3034117 29.8758893,23.5136645 L29.8831508,23.5946792 L29.8831508,24.7297861 C29.8831508,24.9510457 29.723714,25.1350669 29.5134612,25.1732289 L29.4324465,25.1804903 L28.2973396,25.1804903 C28.07608,25.1804903 27.8920588,25.0210536 27.8538968,24.8108008 L27.8466354,24.7297861 L27.8466354,23.5946792 C27.8466354,23.3734196 28.0060721,23.1893984 28.2163249,23.1512364 L28.2973396,23.143975 L29.4324465,23.143975 Z M24.8920188,18.6035472 C25.1132784,18.6035472 25.2972996,18.762984 25.3354616,18.9732368 L25.342723,19.0542514 L25.342723,20.1893584 C25.342723,20.410618 25.1832862,20.5946392 24.9730334,20.6328011 L24.8920188,20.6400626 L23.7569118,20.6400626 C23.5356522,20.6400626 23.3516311,20.4806258 23.3134691,20.270373 L23.3062076,20.1893584 L23.3062076,19.0542514 C23.3062076,18.8329918 23.4656444,18.6489706 23.6758972,18.6108087 L23.7569118,18.6035472 L24.8920188,18.6035472 Z M29.4324465,18.6035472 C29.6537061,18.6035472 29.8377273,18.762984 29.8758893,18.9732368 L29.8831508,19.0542514 L29.8831508,20.1893584 C29.8831508,20.410618 29.723714,20.5946392 29.5134612,20.6328011 L29.4324465,20.6400626 L28.2973396,20.6400626 C28.07608,20.6400626 27.8920588,20.4806258 27.8538968,20.270373 L27.8466354,20.1893584 L27.8466354,19.0542514 C27.8466354,18.8329918 28.0060721,18.6489706 28.2163249,18.6108087 L28.2973396,18.6035472 L29.4324465,18.6035472 Z" fill="#083F51" fill-rule="nonzero"></path></g></g></g></g></svg> 