<?xml version="1.0" encoding="UTF-8"?> <svg xmlns="http://www.w3.org/2000/svg" xmlns:xlink="http://www.w3.org/1999/xlink" width="60px" height="60px" viewBox="0 0 60 60" version="1.1"><title>3AA50256-A6B5-4C9E-B731-DF1C7DD442E7</title><g id="Wibsite" stroke="none" stroke-width="1" fill="none" fill-rule="evenodd"><g id="Desktop_1440px---Startseite" transform="translate(-226.000000, -1099.000000)"><g id="Warum-wir?" transform="translate(226.000000, 1018.000000)"><g id="Icon-Beratung" transform="translate(0.000000, 81.000000)"><circle id="Oval" fill="#E2F5EF" cx="30" cy="30" r="30"></circle><path d="M18.3131377,38.6271394 C18.8435706,38.6271394 19.3522785,38.837853 19.7273512,39.2129258 L19.7273512,39.2129258 L21.282119,40.7676935 C22.0631675,41.5487421 23.3294975,41.5487421 24.1105461,40.7676935 L24.1105461,40.7676935 L25.6653138,39.2129258 C26.0403866,38.837853 26.5490944,38.6271394 27.0795274,38.6271394 L27.0795274,38.6271394 L28.8311736,38.6271394 C31.5259169,38.6271394 33.7619804,40.5191932 34.2206601,43.1566015 L34.2206601,43.1566015 L34.45,44.3606357 L11,44.3606357 L11.1720049,43.1566015 C11.6306846,40.5191932 13.8667482,38.6271394 16.5614914,38.6271394 L16.5614914,38.6271394 Z M22.6963325,22 C26.70978,22 29.5765281,24.8667482 29.5765281,28.8801956 C29.5765281,32.7789731 26.8244499,36.9070905 22.6963325,36.9070905 C18.5682152,36.9070905 15.8161369,32.7789731 15.8161369,28.8801956 C15.8161369,24.8667482 18.6828851,22 22.6963325,22 Z M22.6963325,23.7200489 C19.7149144,23.7200489 17.5361858,25.8987775 17.5361858,28.8801956 C17.5361858,31.9189487 19.6002445,35.1870416 22.6963325,35.1870416 C25.7924205,35.1870416 27.8564792,31.9189487 27.8564792,28.8801956 C27.8564792,25.8987775 25.6777506,23.7200489 22.6963325,23.7200489 Z" id="Combined-Shape" fill="#083F51"></path><path d="M33.2624434,30.4162896 L35.5837104,30.4162896 L35.5837104,34.2850679 C35.5837104,34.5976652 35.771733,34.8808597 36.0611176,35.0000181 C36.1570633,35.0402534 36.2576516,35.0588235 36.3574661,35.0588235 C36.5586425,35.0588235 36.756724,34.9799005 36.9045113,34.8321131 L41.3203348,30.4162896 L47.678733,30.4162896 C48.9585249,30.4162896 50,29.3748145 50,28.0950226 L50,18.321267 C50,17.0414751 48.9585249,16 47.678733,16 L34.321267,16 C33.0414751,16 32,17.0414751 32,18.321267 L32,28.0950226 C32,29.3748145 33.0414751,30.4162896 34.321267,30.4162896 L33.2624434,30.4162896 Z M34.321267,17.5475113 L47.678733,17.5475113 C48.1058462,17.5475113 48.4524887,17.8941538 48.4524887,18.321267 L48.4524887,28.0950226 C48.4524887,28.5221357 48.1058462,28.8687783 47.678733,28.8687783 L41,28.8687783 C40.794181,28.8687783 40.5976471,28.9500226 40.4529548,29.0954887 L37.1312217,32.4172217 L37.1312217,29.6425339 C37.1312217,29.2146471 36.7853529,28.8687783 36.3574661,28.8687783 L34.321267,28.8687783 C33.8941538,28.8687783 33.5475113,28.5221357 33.5475113,28.0950226 L33.5475113,18.321267 C33.5475113,17.8941538 33.8941538,17.5475113 34.321267,17.5475113 Z" id="cha-rect-conversation" fill="#083F51" fill-rule="nonzero"></path></g></g></g></g></svg> 