<?xml version="1.0" encoding="UTF-8"?> <svg xmlns="http://www.w3.org/2000/svg" xmlns:xlink="http://www.w3.org/1999/xlink" width="91px" height="91px" viewBox="0 0 91 91" version="1.1"><title>Icon Ratte</title><g id="Wibsite" stroke="none" stroke-width="1" fill="none" fill-rule="evenodd"><g id="Desktop_1440px---Startseite" transform="translate(-435.000000, -2147.000000)"><g id="Schädlinge-und-Co." transform="translate(70.000000, 1927.000000)"><g id="Icons-Schädlinge" transform="translate(203.000000, 220.000000)"><g id="Ratten/Mäuse" transform="translate(150.000000, 0.000000)"><g id="Icon-Ratte" transform="translate(12.000000, 0.000000)"><g transform="translate(19.000000, 23.000000)" fill="#083F51" id="Fill-1"><path d="M53.2228552,11.089206 C53.0665199,11.1197267 52.9113175,11.1513778 52.7867025,11.1513778 C52.0095576,12.2648181 50.4847224,13.5647737 49.86278,13.8123305 C48.9610201,14.1220591 48.5260002,14.1525798 48.3390777,14.1220591 C48.369665,14.1525798 48.4319725,14.2452723 48.4636927,14.3684854 C48.5565876,14.5538704 48.3084903,14.6160422 48.2144626,14.678214 C46.534425,15.26602 45.1353377,14.492829 41.8998776,15.63679 C38.4163202,16.8745738 37.0478203,18.7318148 36.3941577,20.4025404 C37.1101278,20.526884 39.9400226,21.0208672 40.5630979,21.2989446 C41.4331376,21.670845 41.5271653,22.3829946 41.7446752,23.2793988 C41.9315978,23.9915484 41.8692903,24.301277 41.3402427,24.8269112 C40.8735027,25.2903737 40.0340503,25.7866176 39.5355901,25.1049887 C39.7531,24.9817755 40.0023301,25.2293323 40.2515602,25.1366398 C40.3444551,25.1049887 40.4067626,25.0439473 40.4690701,24.9512548 C40.1269452,25.074468 39.7848202,25.0439473 39.5050027,24.6731773 C39.7225126,24.5488337 39.9717428,24.7963905 40.21984,24.703698 C40.4384828,24.6110055 40.5313777,24.4244902 40.6242725,24.2074541 C40.1586654,23.8061634 40.1892527,23.4659142 39.9400226,22.9086288 C39.6919253,22.2597814 38.6032428,22.4146457 38.0118877,22.5073382 C36.3941577,22.7537646 35.3995029,24.3950999 33.9063879,24.8585623 C32.6613702,25.259853 31.7913305,24.4877923 31.3234576,23.7756427 C31.0436401,23.7439916 30.8261302,23.7439916 30.6086203,23.8061634 C30.6086203,23.8061634 31.8219178,25.9414819 31.8842253,27.7659414 C31.9148127,29.5610106 29.8314754,31.2633873 27.3425728,32.5316918 C27.5600827,32.7170768 27.8399002,32.8719411 28.1820252,33.025675 C28.2137454,32.9962847 28.2443327,32.9962847 28.2443327,32.9962847 C29.7997552,32.9646336 31.3234576,32.6854257 32.8788801,32.6243843 C33.4702352,32.6243843 34.3414078,32.4073482 34.9010427,32.654905 C35.3054752,32.84029 36.0203125,33.3670546 36.1766477,33.9232095 C36.2072351,34.0475531 36.1449275,34.0780738 36.0520327,34.015902 C35.8968303,33.8926888 35.3995029,33.5524396 35.1502728,33.3975753 C35.3054752,33.5219189 35.8345227,34.015902 35.8968303,34.326761 C35.9274176,34.4499742 35.8345227,34.4804949 35.740495,34.4194535 C35.1502728,34.015902 34.2791002,33.8621682 33.6254376,34.0780738 C33.5008225,34.1085945 33.5008225,34.1085945 33.6254376,34.1402456 C33.9992828,34.2329381 34.4966101,34.7280517 34.4037153,35.0683009 C34.2791002,35.470722 34.1862054,35.099952 34.0921776,34.9756084 C33.9675626,34.8207441 33.7194653,34.7280517 33.5631301,34.697531 C33.1904177,34.6048385 28.1820252,35.0061291 27.0004478,35.0061291 C26.5642951,35.0061291 26.0352475,34.9450877 25.5696403,34.7902234 C24.8536702,34.9450877 24.1071127,35.0377802 23.4228627,35.0377802 C13.594133,34.9450877 9.86134552,32.9646336 6.53299053,32.5316918 C5.8793279,32.7475975 5.19507793,32.9962847 4.63544302,33.3365339 C3.01771296,34.2329381 2.58156025,35.6255862 2.64500064,37.4828272 C2.73789551,40.9474916 5.31969299,42.092583 8.77266303,42.7109097 C11.5413831,43.1755026 15.7091905,43.236544 18.4779105,43.2060233 C22.3341802,43.2060233 25.8494578,42.865774 29.5822453,42.5865661 C29.6445528,42.5865661 29.8926501,42.5865661 29.8926501,42.7109097 C29.8926501,42.8036022 29.5199378,42.8974251 29.4576302,42.9279458 C29.2401203,42.9901176 29.0226104,43.0206383 28.7733803,43.051159 C28.3383604,43.1438515 27.9022077,43.236544 27.4354677,43.3292364 C26.5337078,43.5157518 25.6319479,43.7022672 24.6984678,43.8560011 C23.7649877,44.0108654 22.8315076,44.1340785 21.8991604,44.2584221 C20.935093,44.3816353 19.9698927,44.5059789 19.0058252,44.5986714 C18.0417578,44.6913639 17.0459702,44.7840564 16.0501826,44.8450978 C15.9572877,44.8450978 15.8338055,44.8450978 15.7091905,44.8767489 C10.7325181,45.1559567 4.16870297,45.2791699 1.3999829,41.5669487 C-0.403536888,39.1840735 -0.683354342,34.5426667 1.86672294,32.0354479 C2.83079037,31.0780023 4.04408791,30.5195865 5.1327704,30.1182959 C8.42940518,26.3122518 4.88467314,19.9074269 8.58574044,12.635588 C10.265778,10.1916714 12.8464427,8.14904547 16.2994127,6.91239201 C23.7344004,4.28309042 27.1250629,6.75752773 30.3288028,5.61243637 C30.5157254,5.55139497 30.7015151,5.45870248 30.8884377,5.36600999 C32.1946301,4.74655287 33.4702352,3.94171076 34.8387351,3.44659722 C35.0562451,3.38555583 35.2748878,3.32338404 35.4923978,3.26121224 C35.3995029,3.13799906 35.3360625,2.98313478 35.2748878,2.8271401 C35.0256577,2.11725128 35.3677827,1.21971668 36.0837529,0.97215991 C37.2030227,0.568608462 38.3234254,1.28075808 39.1628777,2.30263625 C39.0382627,1.49779415 39.5673102,0.352702785 40.3138677,0.105146014 C40.9675304,-0.143541153 41.9621851,-0.0180671729 42.4289252,1.21971668 C42.6770224,1.9917773 42.7087426,2.7966194 42.6770224,3.6014615 C45.5703576,4.25143933 48.2144626,5.36600999 48.9610201,6.35623708 C49.7381649,7.34533376 53.8447976,9.63551649 54,10.0062865"></path></g><g id="Kreis-Copy" fill="#69F0AE" fill-rule="nonzero"><path d="M45.5,0 C70.6289561,0 91,20.3710439 91,45.5 C91,70.6289561 70.6289561,91 45.5,91 C20.3710439,91 0,70.6289561 0,45.5 C0,20.3710439 20.3710439,0 45.5,0 Z M17.9895723,23.061103 C12.99541,29.1766814 10,36.9885329 10,45.5 C10,65.1061086 25.8938914,81 45.5,81 C54.0114671,81 61.8233186,78.00459 67.938897,73.0104277 Z M45.5,10 C38.0142302,10 31.0696176,12.3169698 25.3441819,16.2728899 L74.7271101,65.6558181 C78.6830302,59.9303824 81,52.9857698 81,45.5 C81,25.8938914 65.1061086,10 45.5,10 Z" id="Combined-Shape"></path></g></g></g></g></g></g></g></svg> 