<?xml version="1.0" encoding="UTF-8"?> <svg xmlns="http://www.w3.org/2000/svg" xmlns:xlink="http://www.w3.org/1999/xlink" width="91px" height="91px" viewBox="0 0 91 91" version="1.1"><title>Icon Ameise</title><g id="Wibsite" stroke="none" stroke-width="1" fill="none" fill-rule="evenodd"><g id="Desktop_1440px---Startseite" transform="translate(-763.000000, -2148.000000)"><g id="Schädlinge-und-Co." transform="translate(70.000000, 1927.000000)"><g id="Icons-Schädlinge" transform="translate(203.000000, 220.000000)"><g id="Icon-Ameise" transform="translate(490.000000, 1.000000)"><g transform="translate(27.000000, 18.000000)" fill="#083F51" id="Fill-1"><path d="M0,34.5207667 L0,33.3335435 C2.01066678,33.1582271 3.5050488,32.0085717 4.8394186,30.6890533 C6.02459051,29.5173823 7.14267344,28.2435108 8.09914202,26.8785475 C9.02396863,25.5590291 10.2229589,24.9674373 11.7245505,24.9078539 C12.8995088,24.8613991 14.0796741,24.9476435 15.3105066,24.9761223 C15.3105066,24.4820855 15.3351392,23.8951392 15.2912811,23.3134443 C15.2818686,23.1866025 15.0445538,23.0405728 14.8835403,22.9678609 C12.863461,22.0563369 11.0552628,20.8287182 9.90994371,18.8951885 C9.03478298,17.4177237 8.41335877,15.78817 7.66977254,14.2309242 C7.21496933,13.2790047 6.79300968,12.3054736 6.25769969,11.4008168 C5.99394987,10.9550526 5.50690389,10.6434015 5.12079179,10.2711571 C5.08614584,10.3034735 5.05190042,10.3357899 5.01725446,10.3681063 L5.01725446,9.22269239 C5.66811771,9.24591979 6.23747286,9.44607941 6.58453317,9.9261797 C7.17832072,10.7482278 7.75228197,11.6034001 8.19446845,12.5139143 C8.94806796,14.0659087 9.54846428,15.6934426 10.2950545,17.2490726 C11.3156081,19.3754907 13.0859561,20.7214682 15.142684,21.7301434 C15.2141788,21.7650855 15.2976896,21.7749824 15.3105066,21.671166 C15.6333347,21.4233397 15.947952,21.1637987 16.2805932,20.9307168 C16.6937412,20.6414851 16.8725784,19.5598961 16.5703776,19.1506899 C16.0040264,18.3839837 15.3633767,17.6576729 14.9045682,16.8293635 C14.2148534,15.5841728 14.0252018,14.2359736 14.5126484,12.838088 C14.5595105,12.703571 14.4547716,12.4666515 14.3492316,12.3347603 C13.6801442,11.4975639 12.9669983,10.6951077 12.3127306,9.84639863 C10.7957185,7.87833077 10.3679512,5.64668239 10.833769,3.22456931 C11.0360373,2.172469 11.2707486,1.12662998 11.5060607,0.0052514126 C11.9500495,0.164207633 12.3013154,0.290039558 12.6019141,0.397895493 C12.3842254,1.57421192 12.1691401,2.70811308 11.9656703,3.84403402 C11.6240171,5.75272053 12.0399688,7.48871635 13.1961022,9.03101583 C13.8661909,9.92537179 14.5801379,10.7864015 15.2702532,11.6573281 C15.6293294,11.4048563 15.9169109,11.2301458 16.1682442,11.0128182 C16.2711807,10.9239481 16.3320615,10.7480258 16.3504859,10.6036119 C16.4518203,9.8064071 16.5014862,9.00112318 16.6356641,8.21038163 C16.7115648,7.76380958 16.9925375,7.42125589 17.6027468,7.34450448 L17.6027468,10.370126 C18.5381875,10.0263605 19.4489955,9.92193818 20.3924468,10.4018365 L20.3924468,7.34046493 C21.0134705,7.42145787 21.3034551,7.76744517 21.3963784,8.22855959 C21.5279529,8.88337035 21.6374982,9.55514721 21.6391003,10.2200568 C21.6401016,10.7300498 21.7612623,11.0784608 22.2124607,11.3107348 C22.357453,11.3852645 22.4776124,11.5084707 22.6532454,11.6431896 C24.0813395,10.0693817 25.6185783,8.53738305 25.9984822,6.3707714 C26.2043553,5.19788859 25.9742501,3.93371199 25.8498851,2.72023173 C25.7717815,1.95998876 25.5250543,1.21711586 25.3428126,0.416477415 C25.6686447,0.293877128 26.0048907,0.167439271 26.4494804,0 C26.666368,1.04543506 26.9263128,2.03593227 27.0670995,3.04339558 C27.2389274,4.27222613 27.4177646,5.51822476 27.1343888,6.75594231 C26.7320551,8.51354971 25.6888716,9.91163733 24.5798006,11.2671077 C24.5057023,11.3577956 24.4336067,11.4533309 24.3452895,11.5290724 C23.6393532,12.1341967 23.4158568,12.7504298 23.6219301,13.7889976 C23.9587769,15.4878296 23.200371,17.0087195 22.100312,18.3199568 C21.917069,18.5382944 21.7268166,18.7505726 21.5435736,18.9689102 C20.9517887,19.6744173 21.1822944,20.6006857 21.9919683,21.0323114 C22.2709383,21.1811688 22.4477728,21.5247323 22.7663954,21.8876857 C23.527605,21.402738 24.4015642,20.9188001 25.1936147,20.3239767 C26.3585598,19.4488085 27.2743744,18.345204 27.8567468,16.9784229 C28.5338449,15.3888607 29.1939204,13.7900075 29.9373063,12.2319538 C30.308799,11.4539368 30.8104644,10.7286359 31.3265489,10.0348435 C31.6962392,9.53797913 32.2677973,9.31075454 32.9737336,9.26955115 C32.9961633,9.64866275 33.0171912,10.0069707 33.040422,10.4020385 C32.1458355,10.647643 31.6732087,11.344667 31.3209415,12.1105654 C30.6204123,13.633677 29.9447161,15.1699172 29.3094736,16.7219116 C28.0984674,19.6806786 25.9760524,21.7030784 23.1026414,22.967255 C22.799239,23.1007621 22.6604549,23.2471957 22.6842865,23.5954047 C22.7177309,24.0783327 22.6926977,24.5655022 22.6926977,25.0712536 C23.492158,25.005813 24.2487615,24.8931096 25.0047642,24.8957353 C25.7837975,24.8987649 26.5692392,24.9690531 27.3392605,25.0912494 C28.397464,25.2592946 29.1859097,25.8603794 29.791513,26.7597848 C31.0541877,28.635549 32.5257394,30.3293315 34.3247254,31.7047976 C35.4059595,32.5312892 36.5422666,33.2654771 38,33.3080943 L38,34.5783302 C37.4366528,34.4559319 36.8967367,34.3848359 36.3874613,34.2190124 C34.9623711,33.7552723 33.7880136,32.8673796 32.6835487,31.880518 C31.177351,30.5343386 29.866212,29.010823 28.7603453,27.3174444 C28.1859835,26.4378328 27.3114236,26.1665771 26.3912031,26.1427438 C25.2312646,26.1126492 24.0665198,26.2455503 22.9059806,26.3388639 C22.8012416,26.3473469 22.6434323,26.5725517 22.6308156,26.7086845 C22.5805489,27.2439246 22.5509096,27.7848201 22.5765436,28.3206662 C22.5835529,28.465686 22.786422,28.6680673 22.94323,28.7284586 C24.2908173,29.2469346 25.5538925,29.91346 26.7144318,30.7813569 C28.5732972,32.1713655 29.6150789,34.0045124 29.8557982,36.341795 C30.090109,38.6148487 30.3700803,40.8854787 30.718142,43.1431822 C30.9696756,44.7767755 31.4294854,46.363712 32.4760735,47.6997925 C32.9741341,48.3356174 33.5985623,48.8242008 34.3812003,49.0158773 C34.7965512,49.1176739 34.899688,49.2972318 34.815977,49.6729098 C34.7725193,49.867616 34.7372726,50.064544 34.6874065,50.3164098 C33.5841432,50.2299635 32.7193963,49.7104776 31.9822185,48.9524564 C30.6800915,47.6133462 30.0626726,45.9104747 29.7444505,44.1326695 C29.2980585,41.6378446 28.9355777,39.1214081 28.6812404,36.5995181 C28.4399203,34.2062878 27.3240403,32.4547398 25.3181799,31.2485307 C24.4494277,30.7262171 23.5316103,30.2873202 22.6360225,29.8104515 C22.5967705,29.8472114 22.5575184,29.8839713 22.5180661,29.9209332 C22.5743407,30.1168513 22.6075848,30.3232722 22.6902945,30.5070716 C23.0481692,31.3030646 23.3906234,32.1085505 23.7931572,32.881518 C25.2681135,35.715867 26.0489491,38.7225027 25.7974155,41.920613 C25.4876046,45.8620001 24.2854101,49.492948 21.6583258,52.5278605 C21.3030546,52.9384805 20.846449,53.2802263 20.3864389,53.5739015 C19.4726269,54.1570103 18.5269726,54.1271176 17.5957375,53.5730936 C16.7137677,53.0481543 16.0296604,52.3064932 15.4701183,51.4662672 C13.0567173,47.8415807 11.9174062,43.8412161 12.2288193,39.4789081 C12.3806206,37.3510761 12.9956363,35.3191834 13.9577123,33.4056494 C14.3650526,32.595922 14.7683875,31.7839728 15.1522967,30.9629346 C15.3057002,30.6347213 15.4016274,30.2794431 15.4711196,29.8952821 C13.1632586,30.8229643 10.9034614,31.8542609 9.87189325,34.3155576 C9.435915,35.3559432 9.3596138,36.5667978 9.21922761,37.7126156 C8.8837827,40.4479957 8.66689504,43.2025636 7.77451146,45.8343292 C7.32731834,47.1536456 6.73993929,48.4192361 5.61504733,49.2820835 C5.04949723,49.715931 4.33334739,49.9536584 3.67727723,50.2628858 C3.42414149,50.3824565 3.29256698,50.2713689 3.23288783,49.9861768 C3.08749499,49.2925864 3.1171343,49.2317912 3.75437949,48.9770977 C4.68721673,48.6044493 5.38794612,47.9552939 5.90202795,47.0910326 C6.83987183,45.513791 7.22277969,43.7563856 7.47771782,41.9725212 C7.7725088,39.9097259 8.01022409,37.8380436 8.23912769,35.7663613 C8.50007378,33.4026197 9.79599258,31.7120688 11.6941101,30.4779869 C12.7362923,29.8005546 13.8998356,29.3095476 15.0241267,28.7668343 C15.3153129,28.626056 15.4747244,28.5117368 15.4342707,28.1491874 C15.3803993,27.6660574 15.4162468,27.1732325 15.3759934,26.6874769 C15.3657799,26.561443 15.2320024,26.3580517 15.1292662,26.3402777 C13.6779413,26.0898257 12.2238126,25.9343031 10.7604718,26.283926 C10.0923857,26.4436901 9.59592723,26.7993723 9.20621034,27.3739981 C7.72564665,29.5555561 5.98493792,31.4943372 3.84329743,33.0404742 C2.92768303,33.7015463 1.9313616,34.2030562 0.817684508,34.4300788 C0.561945317,34.482189 0.296993908,34.4890562 0,34.5207667"></path></g><g id="Kreis" fill="#69F0AE" fill-rule="nonzero"><path d="M45.5,0 C70.6289561,0 91,20.3710439 91,45.5 C91,70.6289561 70.6289561,91 45.5,91 C20.3710439,91 0,70.6289561 0,45.5 C0,20.3710439 20.3710439,0 45.5,0 Z M17.9895723,23.061103 C12.99541,29.1766814 10,36.9885329 10,45.5 C10,65.1061086 25.8938914,81 45.5,81 C54.0114671,81 61.8233186,78.00459 67.938897,73.0104277 Z M45.5,10 C38.0142302,10 31.0696176,12.3169698 25.3441819,16.2728899 L74.7271101,65.6558181 C78.6830302,59.9303824 81,52.9857698 81,45.5 C81,25.8938914 65.1061086,10 45.5,10 Z" id="Combined-Shape"></path></g></g></g></g></g></g></svg> 