<?xml version="1.0" encoding="UTF-8"?> <svg xmlns="http://www.w3.org/2000/svg" xmlns:xlink="http://www.w3.org/1999/xlink" width="60px" height="60px" viewBox="0 0 60 60" version="1.1"><title>06D56B87-CFDD-432A-A7E6-2D0D34738A4C</title><g id="Wibsite" stroke="none" stroke-width="1" fill="none" fill-rule="evenodd"><g id="Desktop_1440px---Startseite" transform="translate(-734.000000, -1256.000000)"><g id="Warum-wir?" transform="translate(226.000000, 1018.000000)"><g id="Icon-Diskret" transform="translate(508.000000, 238.000000)"><circle id="Oval" fill="#E2F5EF" cx="30" cy="30" r="30"></circle><path d="M30,17 C37.209091,17 43,22.7909091 43,30 C43,37.209091 37.209091,43 30,43 C22.7909091,43 17,37.209091 17,30 C17,22.7909091 22.85,17 30,17 Z M40.0462492,24.9789457 L40.0454545,25.5946285 C40.0454545,28.0131645 38.7208944,30.0947858 36.8649526,30.8403745 C36.4805993,30.994781 36.0734562,31.0918882 35.6505682,31.122822 C33.9629318,31.2446691 31.5765129,30.33469 30.6454248,28.7471567 C30.5780216,28.6320007 30.5359881,28.5268381 30.5059496,28.4326738 L30.4384443,28.1841806 C30.3866489,27.9944131 30.3250422,27.8900015 30,27.8900015 C29.7155881,27.8900015 29.6328689,27.9699416 29.5819343,28.116968 L29.4940504,28.4323321 C29.4640119,28.5264033 29.4219784,28.6314473 29.3545752,28.7464524 C28.4234871,30.33469 26.033929,31.246782 24.3494318,31.122822 C21.8845284,30.9425166 19.9545455,28.5140274 19.9545455,25.5946285 L19.9537509,24.9789457 C19.1979381,26.4895085 18.7727273,28.1947295 18.7727273,30.0000001 C18.7727273,36.2045455 23.7954546,41.2272728 30.0000001,41.2272728 C36.2045455,41.2272728 41.2272728,36.2045455 41.2272728,30.0000001 C41.2272728,28.1947295 40.802062,26.4895085 40.0462492,24.9789457 Z M34.7272728,34.1954546 C35.0000001,33.8136364 35.474126,33.6835665 35.8707908,33.898198 L35.9681819,33.959091 C36.3818183,34.1954546 36.5000001,34.7272728 36.2045455,35.2000001 C34.6681819,37.5636364 32.3636364,38.9227274 30.0000001,38.9227274 C27.6363637,38.9227274 25.3318182,37.5636364 23.7954546,35.2000001 C23.5,34.7863637 23.6181818,34.2545455 24.0318182,33.959091 C24.4454546,33.6636364 24.9772728,33.7818183 25.2727273,34.1954546 C26.4545455,36.0272728 28.2272728,37.0909092 30.0000001,37.0909092 C31.7727273,37.0909092 33.5454546,36.0272728 34.7272728,34.1954546 Z M30.0000001,18.7727273 C25.9645165,18.7727273 22.4289775,20.8974919 20.4501784,24.0902258 L39.5498217,24.0902258 C37.5710226,20.8974919 34.0354836,18.7727273 30.0000001,18.7727273 Z" id="Shape" fill="#083F51"></path></g></g></g></g></svg> 