<?xml version="1.0" encoding="UTF-8"?> <svg xmlns="http://www.w3.org/2000/svg" xmlns:xlink="http://www.w3.org/1999/xlink" width="91px" height="91px" viewBox="0 0 91 91" version="1.1"><title>Icon Wespe</title><g id="Wibsite" stroke="none" stroke-width="1" fill="none" fill-rule="evenodd"><g id="Desktop_1440px---Startseite" transform="translate(-273.000000, -2148.000000)"><g id="Schädlinge-und-Co." transform="translate(70.000000, 1927.000000)"><g id="Icons-Schädlinge" transform="translate(203.000000, 220.000000)"><g id="Icon-Wespe" transform="translate(0.000000, 1.000000)"><path d="M45.1958629,69 C49.7015054,66.2625951 53.7009029,60.4696689 52.8962379,52.5755706 L52.584781,51.5791336 L52.584781,51.5791336 L52.2816078,50.6352644 L52.2816078,50.6352644 L51.982896,49.7443559 L51.982896,49.7443559 L51.7843458,49.1800337 L51.7843458,49.1800337 L51.584947,48.6395408 C51.5515803,48.5514509 51.518131,48.4643587 51.4845756,48.3782667 L51.2817806,47.8737361 C49.952881,44.6725521 48.3907731,43 45.1958629,43 C42.6845211,43 41.3698201,43.7070284 40.1994064,45.5969456 L39.9941464,45.9428364 C39.8580193,46.1817454 39.7230325,46.4374141 39.5874724,46.7106172 L39.3834881,47.1336696 L39.3834881,47.1336696 L39.1773586,47.5836048 L39.1773586,47.5836048 L38.9677987,48.0610039 L38.9677987,48.0610039 L38.7535233,48.5664482 L38.7535233,48.5664482 L38.4204573,49.3784704 L38.4204573,49.3784704 L37.1570341,52.5755706 L37.1570341,52.5755706 C36.0922706,58.7979985 40.6260969,66.8921448 45.1958629,69 Z" id="Oval" fill="#083F51"></path><path d="M54.275706,21.0029486 C54.696052,21.0129636 54.9912268,21.3173543 54.994172,21.6949696 C54.9972809,22.0819432 54.6852529,22.3861698 54.2387273,22.3920803 C53.3041161,22.4043938 52.369014,22.4628421 51.5567923,22.97016 C50.8340721,23.4214924 50.1617475,23.9542583 49.4187382,24.4857107 C50.6104002,25.4399281 51.2005863,26.6023265 51.0569258,28.0433392 C50.9073749,29.5437854 49.8318848,30.3077175 48.5734647,30.9148572 C48.8769843,31.198397 49.1947391,31.4387574 49.4418089,31.7378943 C49.9264585,32.3251682 50.3636576,32.9518454 50.8404533,33.546179 C50.9414084,33.6719413 51.1225384,33.7932707 51.2753617,33.8052559 L51.7013133,33.8498279 C51.9913371,33.8786629 52.2786944,33.8870178 52.474714,33.762569 C52.6325188,33.66251 52.7290156,33.4611051 52.8098796,33.2379952 L52.9484173,32.8301585 L52.997324,32.7016342 L52.997324,32.7016342 C54.2704701,29.6038754 56.6359594,27.8474718 59.8218515,27.0973309 C60.2508694,26.9963598 60.6857778,27.2646309 60.8094764,27.6908436 C60.93792,28.1333102 60.7186659,28.5813589 60.2685407,28.7491515 L60.0103869,28.8332241 L59.4842984,28.9750639 C56.8022675,29.7399188 55.173017,31.5470646 54.2769647,34.0841042 L54.0533866,34.7504562 C53.8422455,35.3561183 53.7111703,35.4996668 53.1819472,35.5336887 L52.9638914,35.5420015 L52.7029051,35.544178 L51.6368036,35.5442564 L51.7631202,36.6908934 L55.6751201,36.6930338 C56.2523012,36.6922068 56.8294701,36.6900178 57.406621,36.6853113 C57.8619821,36.6816993 58.2127886,36.8274916 58.5318523,37.15339 C59.6019429,38.2465042 60.6941226,39.3177823 61.7669948,40.4081054 C61.963178,40.6075848 62.1598522,40.6947647 62.4434098,40.6924661 C64.0932147,40.6794959 65.7430195,40.6891825 67.3928243,40.6847496 C67.7683378,40.6836004 68.1065453,40.8011537 68.2128999,41.1631718 C68.289148,41.4222487 68.2997834,41.7993714 68.160868,41.9973732 C68.0077174,42.215405 67.6520023,42.4019141 67.3810435,42.4070037 C65.5137845,42.4416458 63.6453801,42.4409891 61.7779575,42.4078246 C61.5007811,42.4028992 61.1697729,42.2265693 60.9624633,42.0264332 C59.8228332,40.9264234 58.7200181,39.7879954 57.5869329,38.6807618 C57.4417998,38.5389098 57.1952208,38.4321924 56.9934744,38.4287446 C56.4762966,38.4198132 55.9590142,38.4162143 55.4344224,38.415111 L53.0001056,38.4174161 L53.312449,38.7451731 L53.3769281,38.8099719 C56.6567394,42.0425229 59.837232,45.3683284 62.7114234,48.9743902 C64.8610947,51.6715484 66.8440348,54.4805135 68.1176717,57.7230796 C68.8163394,59.5018117 69.2113239,61.3366936 68.8824428,63.2579345 C68.5396539,65.2602806 67.4108228,66.7833836 65.8910978,68.052171 C65.6085219,68.2880985 65.3135107,68.5099064 65.0140816,68.724162 C64.381681,69.1766436 63.8733061,69.0494037 63.5187364,68.3483527 L50.0459029,41.6631016 C49.9856898,41.5439065 49.9179501,41.4286517 49.8505377,41.3060089 L48.2290396,42.7511261 C51.0124205,44.8365476 52.2505513,47.8126486 53.097461,51.0693341 C48.3367031,51.808475 43.6466301,51.8091317 38.8819453,51.070155 C39.7196921,47.8200367 40.972549,44.8564134 43.7531483,42.7711562 L42.1427765,41.3319494 C42.0771639,41.4493385 42.0040247,41.5695187 41.9408664,41.6946243 L28.643927,68.0109617 C28.0543955,69.1792705 27.6785548,69.2758087 26.6447883,68.4939809 C25.1247361,67.3440602 23.8797331,65.9787347 23.3153994,64.0991957 C22.7931166,62.3603594 22.9731013,60.643195 23.4644594,58.9294783 C24.1632907,56.4925463 25.4114026,54.3366914 26.8267365,52.2678522 C29.4631538,48.4141753 32.5872267,44.9775235 35.8179517,41.6332233 L38.9194149,38.4504164 L38.7182078,38.4244637 L38.6206403,38.4187296 L38.6206403,38.4187296 C37.4070529,38.4165952 36.1934654,38.4069086 34.9803688,38.4282521 C34.7907304,38.4315357 34.5592047,38.5343127 34.4224163,38.6684482 C33.3097839,39.7574579 32.2089323,40.858781 31.1193706,41.9707759 C30.8109423,42.2853459 30.4722439,42.4329442 30.0324269,42.4303173 C28.2191632,42.4191531 26.405736,42.4253919 24.5923087,42.4253919 C24.2033782,42.4253919 23.9047673,42.2746742 23.7442537,41.9032977 C23.5925758,41.5522797 23.6300453,41.1942019 23.9165481,40.9650059 C24.1192763,40.8029596 24.4270501,40.7019886 24.6896641,40.6980483 C26.3118167,40.6744063 27.9346239,40.6793317 29.5569401,40.6924661 C29.8404978,40.6947647 30.0368447,40.607749 30.2335188,40.4079412 L33.4979497,37.1244942 C33.796397,36.8207602 34.127896,36.6836694 34.5521689,36.6864605 L37.149593,36.6927404 L40.2164498,36.6908934 L40.3543835,35.5442564 L39.1352328,35.5442564 C38.3883927,35.5441115 38.205498,35.4783938 37.9846417,34.9184102 L37.8928478,34.6670397 C37.4625209,33.4215659 36.9502191,32.2205852 36.0882562,31.2005314 C35.0597256,29.9831325 33.7019868,29.327067 32.212532,28.8911676 L31.8442846,28.7919296 C31.783314,28.7743805 31.7229737,28.7551714 31.663906,28.7325692 C31.2429055,28.5713439 31.0455769,28.138564 31.1768021,27.6941272 C31.3042639,27.2626607 31.7300095,26.9893001 32.1577185,27.0973309 C34.2774469,27.6325595 36.1826663,28.5348958 37.5739477,30.3103444 C38.3226839,31.2660394 38.8580565,32.3376459 39.2766026,33.4701634 C39.370031,33.7231656 39.4904571,33.8004947 39.7666517,33.8318532 C40.5255018,33.9177401 41.048937,33.7506704 41.4831028,33.0825393 L41.568789,32.9421587 C41.787634,32.5616703 42.075405,32.2210777 42.3831787,31.8908901 L43.0887851,31.1530848 L43.3175854,30.9020511 L43.3175854,30.9020511 C42.1211783,30.3384193 41.0699043,29.5482182 40.9280437,28.0270854 C40.7940369,26.5908338 41.3714604,25.447973 42.5148539,24.532338 L42.1316405,24.1983576 C40.9781088,23.2101723 39.7755528,22.3721816 38.1459717,22.3970057 C37.9960936,22.3993042 37.8453973,22.4030804 37.6961737,22.3920803 C37.2679738,22.3603934 36.996197,22.0827641 36.9966878,21.6875815 C36.9971787,21.3007721 37.2766458,21.0134561 37.7125359,21.0032769 C39.2055905,20.9683065 40.6143795,21.2408462 41.8258399,22.1934218 L43.1128211,23.2058077 L43.7618203,23.7047038 L43.7618203,23.7047038 C43.8796284,23.794018 44.0511047,23.8537798 44.1983649,23.8554216 C45.3957538,23.8674068 46.5931426,23.8678993 47.7903679,23.8559141 C47.937628,23.8544365 48.1086135,23.791227 48.2265852,23.7010918 L48.8624401,23.2076137 L50.1247689,22.2080339 C51.3467011,21.247906 52.7677618,20.9673214 54.275706,21.0029486 Z" id="Path" fill="#083F51"></path><g id="Kreis" fill="#69F0AE" fill-rule="nonzero"><path d="M45.5,0 C70.6289561,0 91,20.3710439 91,45.5 C91,70.6289561 70.6289561,91 45.5,91 C20.3710439,91 0,70.6289561 0,45.5 C0,20.3710439 20.3710439,0 45.5,0 Z M17.9895723,23.061103 C12.99541,29.1766814 10,36.9885329 10,45.5 C10,65.1061086 25.8938914,81 45.5,81 C54.0114671,81 61.8233186,78.00459 67.938897,73.0104277 Z M45.5,10 C38.0142302,10 31.0696176,12.3169698 25.3441819,16.2728899 L74.7271101,65.6558181 C78.6830302,59.9303824 81,52.9857698 81,45.5 C81,25.8938914 65.1061086,10 45.5,10 Z" id="Combined-Shape"></path></g></g></g></g></g></g></svg> 