<?xml version="1.0" encoding="UTF-8"?> <svg xmlns="http://www.w3.org/2000/svg" xmlns:xlink="http://www.w3.org/1999/xlink" width="200px" height="72px" viewBox="0 0 200 72" version="1.1"><title>Logo</title><g id="Wibsite" stroke="none" stroke-width="1" fill="none" fill-rule="evenodd"><g id="Desktop_1440px---Startseite" transform="translate(-226.000000, -14.000000)"><g id="Logo" transform="translate(226.000000, 14.000000)"><g id="Group-2" transform="translate(19.189698, 0.000000)"><g id="Group" transform="translate(31.438442, 20.213005)" fill="#BEBEBE" fill-rule="nonzero"><path d="M2.34448237,0.121914966 C3.16891097,-0.286130513 3.16891097,0.410765342 3.24273737,1.02277901 C3.41274616,3.37744145 3.93618179,5.79139137 4.78121449,6.88466872 C4.6152381,7.01101008 3.78697595,7.01101008 3.50772094,6.88466872 C2.97980731,6.55539566 2.50253414,4.81574711 2.07590142,1.66572308 L1.34354862,2.04207444 L1.34354862,0.616042767 C1.64015358,0.473808733 1.97379816,0.309099466 2.34448237,0.121914966 Z" id="Path"></path><path d="M1.34354862,9.45819192 L4.85117237,11.4052741 C5.09249104,11.5706484 5.21798516,11.9267878 5.11018475,12.1644034 C4.7075661,13.0518629 3.85567188,15.3694552 3.46511998,16.9989051 C3.08618505,18.579887 3.16243174,19.4849357 3.16243174,19.6153604 C2.71709235,19.5312419 2.20636668,19.0883925 2.0140954,18.6984582 C1.89779314,18.384405 2.20636668,16.1696127 3.68131706,12.2824008 L1.34354862,10.9865426 L1.34354862,9.45819192 Z" id="Path"></path><path d="M1.34354862,22.4757155 L3.69918291,25.4542773 C3.84803745,25.6228589 3.90280797,25.8564687 3.84461955,26.0746005 L3.10821969,28.0466823 C2.31576797,30.1770786 1.30319381,32.359323 1.36832375,32.6339772 C1.49868173,33.1836992 3.3421765,33.7154676 4.16304152,33.8691938 C3.68854232,34.3758685 3.33693504,34.6649007 3.10821969,34.7362905 C2.87950434,34.8076802 2.39487641,34.7111604 1.6543359,34.4467309 C0.181913965,33.8133551 -0.130272556,33.3853378 0.0432100429,32.4715022 L0.122720192,32.1527624 C0.319425045,31.4474515 0.776389076,30.5332882 1.49868173,28.5680656 L2.42368912,26.0871291 L1.34354862,24.6937809 C1.34354862,24.3460695 1.34354862,23.3098085 1.34354862,22.4757155 Z" id="Path"></path></g><g id="Group" transform="translate(8.023869, 37.713005) scale(-1, 1) translate(-8.023869, -37.713005) translate(5.023869, 20.213005)" fill="#BEBEBE" fill-rule="nonzero"><path d="M2.34448237,0.121914966 C3.16891097,-0.286130513 3.16891097,0.410765342 3.24273737,1.02277901 C3.41274616,3.37744145 3.93618179,5.79139137 4.78121449,6.88466872 C4.6152381,7.01101008 3.78697595,7.01101008 3.50772094,6.88466872 C2.97980731,6.55539566 2.50253414,4.81574711 2.07590142,1.66572308 L1.34354862,2.04207444 L1.34354862,0.616042767 C1.64015358,0.473808733 1.97379816,0.309099466 2.34448237,0.121914966 Z" id="Path"></path><path d="M1.34354862,9.45819192 L4.85117237,11.4052741 C5.09249104,11.5706484 5.21798516,11.9267878 5.11018475,12.1644034 C4.7075661,13.0518629 3.85567188,15.3694552 3.46511998,16.9989051 C3.08618505,18.579887 3.16243174,19.4849357 3.16243174,19.6153604 C2.71709235,19.5312419 2.20636668,19.0883925 2.0140954,18.6984582 C1.89779314,18.384405 2.20636668,16.1696127 3.68131706,12.2824008 L1.34354862,10.9865426 L1.34354862,9.45819192 Z" id="Path"></path><path d="M1.34354862,22.4757155 L3.69918291,25.4542773 C3.84803745,25.6228589 3.90280797,25.8564687 3.84461955,26.0746005 L3.10821969,28.0466823 C2.31576797,30.1770786 1.30319381,32.359323 1.36832375,32.6339772 C1.49868173,33.1836992 3.3421765,33.7154676 4.16304152,33.8691938 C3.68854232,34.3758685 3.33693504,34.6649007 3.10821969,34.7362905 C2.87950434,34.8076802 2.39487641,34.7111604 1.6543359,34.4467309 C0.181913965,33.8133551 -0.130272556,33.3853378 0.0432100429,32.4715022 L0.122720192,32.1527624 C0.319425045,31.4474515 0.776389076,30.5332882 1.49868173,28.5680656 L2.42368912,26.0871291 L1.34354862,24.6937809 C1.34354862,24.3460695 1.34354862,23.3098085 1.34354862,22.4757155 Z" id="Path"></path></g><path d="M21.3536432,50.7387685 C27.4780151,50.7387685 30.254397,47.6391147 30.9893216,45.3959442 C31.3976131,44.1723967 31.4384422,43.6421927 31.4384422,40.9503882 L31.4384422,21.8630466 L25.6407035,24.7506188 L25.6407035,40.0123351 C25.6407035,41.521377 25.6407035,41.9292262 25.5590452,42.541 C25.3140704,44.6210308 23.7217337,45.8445783 21.2311558,45.8445783 C19.3530151,45.8445783 18.0056533,45.1512347 17.3523869,43.8869023 C17.0257538,43.2751285 16.8624372,42.2555055 16.8624372,40.5017541 L16.8624372,24.7506188 L11.0238693,21.8630466 L11.0238693,41.6029469 C11.0238693,44.3355364 11.3096734,45.4775141 12.2487437,46.9457711 C13.8410804,49.4336511 17.0257538,50.7387685 21.3536432,50.7387685 Z" id="Path-Copy-3" fill="#69F0AD" fill-rule="nonzero"></path><path d="M15.4958163,19.800495 C17.1906111,19.800495 18.5772613,18.4082727 18.5772613,16.7066677 C18.5772613,15.0050626 17.2291291,13.6128403 15.5728525,13.6128403 C13.8780577,13.6128403 12.4528894,15.0050626 12.4528894,16.7066677 C12.4528894,18.4082727 13.8395397,19.800495 15.4958163,19.800495 Z" id="Path-Copy" fill="#69F0AD" fill-rule="nonzero"></path><path d="M26.9279771,19.800495 C28.6227719,19.800495 30.0094221,18.4082727 30.0094221,16.7066677 C30.0094221,15.0050626 28.6612899,13.6128403 27.0050133,13.6128403 C25.2717005,13.6128403 23.8850503,15.0050626 23.8850503,16.7066677 C23.8850503,18.4082727 25.2331824,19.800495 26.9279771,19.800495 Z" id="Path-Copy-2" fill="#69F0AD" fill-rule="nonzero"></path><path d="M21.2149685,12.3753094 C22.2942077,12.3753094 23.3302982,12.4197512 24.2933417,12.5155455 C23.4058839,13.1636674 22.8766345,14.3695219 22.619914,16.0869637 L22.5793162,16.3732261 C22.2941581,18.4604417 22.2529922,20.3837153 22.8661245,20.9597338 C22.3303907,21.0111408 21.7785631,21.038026 21.2149685,21.038026 C20.6630349,21.038026 20.1223865,21.0122419 19.5970223,20.9628077 C20.2343236,20.3716692 20.1694609,18.3339969 19.8577908,16.1630649 C19.604999,14.4022482 19.0719913,13.1691907 18.1689698,12.5123444 C19.1227385,12.4187661 20.1477573,12.3753094 21.2149685,12.3753094 Z" id="Shape-Copy" fill="#F8F8FF"></path><path d="M7.25271323e-15,13.6128403 L0.396370504,12.6280511 C3.55326411,4.81794061 6.41009562,-1.2736905 11.6760938,0.22906599 C15.398848,1.61247665 18.09573,5.2339 20.8589879,11.1392932 C20.4007602,11.1436658 19.9517693,11.1561853 19.5136389,11.1775191 L19.2691925,10.6724961 C16.7865432,5.60607655 14.3720923,2.60920861 11.1324665,1.32573453 C5.73295859,-0.813441085 2.64889837,8.93359149 7.25271323e-15,13.6128403 Z" id="Path" fill="#BEBEBE" fill-rule="nonzero"></path><path d="M42.4623116,13.6128403 C39.8134132,8.93359149 36.729353,-0.813441085 31.3298451,1.32573453 C27.9836592,2.65142556 25.5178255,5.80508058 22.9476015,11.1793358 C22.611104,11.1624355 22.2679204,11.1508549 21.9192542,11.1442945 L21.6031306,11.1397057 C24.366456,5.23406865 27.0633768,1.61250886 30.7862178,0.22906599 C36.2716325,-1.33630535 39.1429342,5.33876123 42.4623116,13.6128403 Z" id="Path" fill="#BEBEBE" fill-rule="nonzero"></path></g><g id="Group-3" transform="translate(0.000000, 21.863047)" fill="#F8F8FF" fill-rule="nonzero"><path d="M12.6510087,29.2882322 C15.9866445,29.2882322 19.1595663,28.4678335 22.0477387,26.7449964 L22.0477387,13.1263786 L11.1052263,13.1263786 L11.837439,17.8026509 L16.1493584,17.8026509 L16.1493584,24.2838004 C15.2137533,24.7760396 14.1967912,24.9811392 12.9357581,24.9811392 C11.1052263,24.9811392 9.5594439,24.4068602 8.5018033,23.3813618 C7.07805633,21.9456642 6.38652209,19.3203885 6.38652209,15.2594151 C6.38652209,10.9933421 6.87466391,7.91684708 8.78655269,6.07095009 C9.76283632,5.12749163 11.1865833,4.63525244 12.8544012,4.63525244 C15.0103608,4.63525244 16.9222496,5.3325913 18.7527814,6.85032882 L21.7629893,3.28159464 C19.2816017,1.10753819 16.1900369,0 12.7730442,0 C10.0882642,0 7.972983,0.615298996 5.89838028,2.00997672 C1.95256726,4.67627237 0,8.94234541 0,14.9722756 C0,19.2383486 0.935605148,22.2738237 3.01020787,24.9401193 C5.28820301,27.8935545 8.42044633,29.2882322 12.6510087,29.2882322 Z" id="G-Copy"></path><polygon id="Path" points="73.6514318 28.4632116 74.6635205 23.7125173 64.5831171 23.7125173 64.5831171 8.79318618e-15 58.7939698 8.79318618e-15 58.7939698 28.4632116"></polygon><polygon id="Path" points="93.9712136 28.4632116 93.9712136 23.5487002 83.3240406 23.5487002 83.3240406 15.9312076 91.2992995 15.9312076 91.2992995 11.2624218 83.2430735 11.2624218 83.2430735 4.66878578 92.8781579 4.66878578 93.6068617 5.86212412e-15 77.5753769 5.86212412e-15 77.5753769 28.4632116"></polygon><path d="M107.658606,0 C112.638082,0 115.917249,3.35824942 115.917249,8.3546693 C115.917249,12.6139125 113.123885,16.1359789 109.642299,16.2178875 C110.209069,16.6683843 110.45197,16.9141099 110.816322,17.405561 L110.91764,17.5366507 C112.024398,18.998133 114.460295,23.0961352 116.059053,25.836866 L117.577075,28.4632116 L110.897289,28.4632116 L110.228122,27.3069481 C109.730186,26.4427983 109.348338,25.7673885 108.833817,24.8324611 L107.413535,22.2398112 C105.283924,18.3808316 104.511257,17.2332535 103.610251,16.8322014 C103.362289,16.7246964 103.145323,16.6485471 102.850868,16.6037534 L102.719613,16.5864758 L102.719613,28.4632116 L97.1733668,28.4632116 L97.1733668,0 L107.658606,0 Z M104.74379,4.58687726 L102.719613,4.58687726 L102.719613,12.2862784 L104.62234,12.2862784 C107.051352,12.2862784 108.103925,12.0405528 108.873112,11.3443304 C109.561332,10.6890622 109.966168,9.66520566 109.966168,8.47753208 C109.966168,6.71649885 109.277948,5.48787101 107.94199,4.99641987 C107.321243,4.76093287 106.217152,4.60067088 104.914768,4.58772455 L104.74379,4.58687726 Z" id="Shape"></path></g><g id="Schädlingsbekämpfung" transform="translate(0.000000, 58.291457)" fill-rule="nonzero"><path d="M3.35829918,12.9625857 C3.9267418,12.9625857 4.43410178,12.8782879 4.8803791,12.7096924 C5.32665642,12.5410969 5.703125,12.3098802 6.00978484,12.0160423 C6.31644467,11.7222045 6.54955601,11.3765837 6.70911885,10.97918 C6.86868169,10.5817763 6.94846311,10.1566748 6.94846311,9.70387544 C6.94846311,9.27516116 6.87491462,8.91388508 6.72781762,8.62004721 C6.58072063,8.32620933 6.38625342,8.07813309 6.14441598,7.87581849 C5.90257855,7.67350388 5.62832992,7.50611263 5.32167008,7.37364474 C5.01501025,7.24117684 4.7008709,7.12195574 4.37925205,7.01598142 C4.0576332,6.91000711 3.74349385,6.80764555 3.43683402,6.70889676 C3.13017418,6.61014796 2.85592555,6.49333536 2.61408811,6.35845896 C2.37225068,6.22358256 2.17778347,6.06100832 2.03068648,5.87073626 C1.88358948,5.68046419 1.81004098,5.44081772 1.81004098,5.15179686 C1.81004098,4.92539719 1.85242486,4.71465281 1.93719262,4.51956373 C2.02196038,4.32447465 2.14786544,4.15467489 2.31490779,4.01016446 C2.48195014,3.86565403 2.69012978,3.75124994 2.93944672,3.66695219 C3.18876366,3.58265443 3.47547814,3.54050556 3.79959016,3.54050556 C4.14364754,3.54050556 4.43659495,3.58145018 4.67843238,3.66333942 C4.92026981,3.74522867 5.12720287,3.83554769 5.29923156,3.93429648 C5.47126025,4.03304528 5.6133709,4.1233643 5.72556352,4.20525354 C5.83775615,4.28714278 5.93623634,4.32808741 6.0210041,4.32808741 C6.10078552,4.32808741 6.16560792,4.3100236 6.21547131,4.273896 C6.2653347,4.23776839 6.31270492,4.18357698 6.35758197,4.11132176 L6.35758197,4.11132176 L6.70911885,3.44657378 C6.34012978,3.09974874 5.90881148,2.83481295 5.41516393,2.65176641 C4.92151639,2.46871986 4.3755123,2.37719659 3.77715164,2.37719659 C3.24361339,2.37719659 2.77115779,2.45667733 2.35978484,2.6156388 C1.94841189,2.77460027 1.60310792,2.98654891 1.32387295,3.2514847 C1.04463798,3.51642049 0.831471995,3.81989239 0.684375,4.16190041 C0.537278005,4.50390843 0.463729508,4.85795899 0.463729508,5.22405208 C0.463729508,5.68166844 0.537278005,6.06582534 0.684375,6.37652277 C0.831471995,6.68722019 1.02469262,6.94613471 1.26403689,7.15326633 C1.50338115,7.36039795 1.7763832,7.52899345 2.08304303,7.65905284 C2.38970287,7.78911223 2.70384221,7.90351632 3.02546107,8.00226511 C3.34707992,8.10101391 3.66121926,8.1973542 3.9678791,8.29128598 C4.27453893,8.38521776 4.54754098,8.49962185 4.78688525,8.63449825 C5.02622951,8.76937465 5.21945014,8.9367659 5.36654713,9.136672 C5.51364413,9.33657809 5.58719262,9.59308411 5.58719262,9.90619004 C5.58719262,10.1903939 5.53732923,10.4481042 5.43760246,10.6793208 C5.33787568,10.9105375 5.19451844,11.1092394 5.00753074,11.2754264 C4.82054303,11.4416134 4.59241803,11.5704685 4.32315574,11.6619918 C4.05389344,11.753515 3.74723361,11.7992767 3.40317623,11.7992767 C2.98931011,11.7992767 2.63901981,11.7450853 2.35230533,11.6367025 C2.06559085,11.5283196 1.82126025,11.4090985 1.61931352,11.2790391 C1.4173668,11.1489797 1.24907787,11.0297586 1.11444672,10.9213758 C0.979815574,10.812993 0.860143443,10.7588016 0.755430328,10.7588016 C0.685621585,10.7588016 0.622045765,10.7768654 0.564702869,10.812993 C0.507359973,10.8491206 0.458743169,10.893678 0.418852459,10.9466651 L0.418852459,10.9466651 L0,11.6114131 C0.403893443,12.0256764 0.89130806,12.3544376 1.46224385,12.5976968 C2.03317964,12.840956 2.66519809,12.9625857 3.35829918,12.9625857 Z M13.5001525,12.9625857 C14.3827344,12.9625857 15.1369182,12.8253007 15.7627037,12.5507309 C16.3884892,12.2761611 16.9207809,11.8932085 17.3595787,11.401873 L17.3595787,11.401873 L16.7911361,10.8021547 C16.7263137,10.7395335 16.6540117,10.7082229 16.5742303,10.7082229 C16.4944489,10.7082229 16.4121743,10.7443505 16.3274066,10.8166058 C16.1379257,10.9803842 15.9496914,11.1212819 15.7627037,11.2392988 C15.575716,11.3573156 15.3737693,11.4548602 15.1568635,11.5319324 C14.9399578,11.6090046 14.7043533,11.6656045 14.45005,11.7017321 C14.1957467,11.7378598 13.9090322,11.7559236 13.5899066,11.7559236 C13.066341,11.7559236 12.5776798,11.6644003 12.123923,11.4813537 C11.6701661,11.2983072 11.2774919,11.0321671 10.9459004,10.6829336 C10.6143089,10.3337001 10.3525261,9.90619004 10.160552,9.40040353 C9.96857801,8.89461702 9.87259098,8.31898381 9.87259098,7.67350388 C9.87259098,7.04729202 9.96857801,6.48129283 10.160552,5.97550632 C10.3525261,5.46971981 10.6205418,5.04100553 10.9645992,4.68936348 C11.3086566,4.33772144 11.7187829,4.06676438 12.1949783,3.87649231 C12.6711736,3.68622024 13.1959858,3.59108421 13.7694148,3.59108421 C14.0885404,3.59108421 14.3702686,3.61396503 14.6145992,3.65972666 C14.8589298,3.7054883 15.0733423,3.76208822 15.2578369,3.82952642 C15.4423314,3.89696462 15.6018943,3.96921984 15.7365254,4.04629207 C15.8711566,4.1233643 15.9883355,4.19561951 16.0880623,4.26305771 C16.1877891,4.33049591 16.2738034,4.38709583 16.3461053,4.43285747 C16.4184072,4.47861911 16.4869694,4.50149992 16.5517918,4.50149992 C16.6365596,4.50149992 16.701382,4.48584463 16.746259,4.45453403 C16.7911361,4.42322344 16.8310268,4.38348307 16.8659311,4.33531293 L16.8659311,4.33531293 L17.3371402,3.69224151 C16.893356,3.2876123 16.385996,2.96728085 15.8150602,2.73124714 C15.2441245,2.49521344 14.5647358,2.37719659 13.7768943,2.37719659 C12.9790801,2.37719659 12.249828,2.50605172 11.5891381,2.76376199 C10.9284482,3.02147226 10.3612522,3.38395259 9.88755,3.85120298 C9.41384781,4.31845338 9.04610533,4.87722704 8.78432254,5.52752398 C8.52253975,6.17782092 8.39164836,6.89314756 8.39164836,7.67350388 C8.39164836,8.45386021 8.51381366,9.16918684 8.75814426,9.81948378 C9.00247486,10.4697807 9.34653224,11.0273501 9.79031639,11.492192 C10.2341005,11.9570339 10.770132,12.31831 11.3984107,12.5760203 C12.0266893,12.8337305 12.7272699,12.9625857 13.5001525,12.9625857 Z M20.9493828,12.8469773 L20.9493828,8.13593726 L26.7235631,8.13593726 L26.7235631,12.8469773 L28.1820672,12.8469773 L28.1820672,2.49280493 L26.7235631,2.49280493 L26.7235631,7.1099132 L20.9493828,7.1099132 L20.9493828,2.49280493 L19.4908787,2.49280493 L19.4908787,12.8469773 L20.9493828,12.8469773 Z M33.2079369,1.58961474 C33.3226227,1.58961474 33.4310755,1.56914243 33.5332955,1.52819781 C33.6355154,1.48725319 33.724023,1.43065327 33.798818,1.35839805 C33.8736131,1.28614284 33.9334492,1.20304934 33.9783262,1.10911756 C34.0232033,1.01518578 34.0456418,0.915232729 34.0456418,0.809258413 C34.0456418,0.698467083 34.0232033,0.59369702 33.9783262,0.494948226 C33.9334492,0.396199432 33.8736131,0.310697427 33.798818,0.238442211 C33.724023,0.166186996 33.6355154,0.108382823 33.5332955,0.0650296939 C33.4310755,0.0216765646 33.3226227,0 33.2079369,0 C33.1032238,0 33.0022504,0.0216765646 32.9050168,0.0650296939 C32.8077832,0.108382823 32.7217689,0.166186996 32.6469738,0.238442211 C32.5721787,0.310697427 32.5123426,0.396199432 32.4674656,0.494948226 C32.4225885,0.59369702 32.40015,0.698467083 32.40015,0.809258413 C32.40015,0.915232729 32.4225885,1.01518578 32.4674656,1.10911756 C32.5123426,1.20304934 32.5721787,1.28614284 32.6469738,1.35839805 C32.7217689,1.43065327 32.8077832,1.48725319 32.9050168,1.52819781 C33.0022504,1.56914243 33.1032238,1.58961474 33.2079369,1.58961474 Z M36.4091664,1.58961474 C36.5188658,1.58961474 36.623579,1.56914243 36.7233057,1.52819781 C36.8230325,1.48725319 36.9102934,1.43065327 36.9850885,1.35839805 C37.0598836,1.28614284 37.1197197,1.20304934 37.1645967,1.10911756 C37.2094738,1.01518578 37.2319123,0.915232729 37.2319123,0.809258413 C37.2319123,0.698467083 37.2094738,0.59369702 37.1645967,0.494948226 C37.1197197,0.396199432 37.0598836,0.310697427 36.9850885,0.238442211 C36.9102934,0.166186996 36.8230325,0.108382823 36.7233057,0.0650296939 C36.623579,0.0216765646 36.5188658,0 36.4091664,0 C36.2944806,0 36.1872743,0.0216765646 36.0875475,0.0650296939 C35.9878208,0.108382823 35.9005598,0.166186996 35.8257648,0.238442211 C35.7509697,0.310697427 35.6923802,0.396199432 35.6499963,0.494948226 C35.6076124,0.59369702 35.5864205,0.698467083 35.5864205,0.809258413 C35.5864205,0.915232729 35.6076124,1.01518578 35.6499963,1.10911756 C35.6923802,1.20304934 35.7509697,1.28614284 35.8257648,1.35839805 C35.9005598,1.43065327 35.9878208,1.48725319 36.0875475,1.52819781 C36.1872743,1.56914243 36.2944806,1.58961474 36.4091664,1.58961474 Z M30.9192074,12.8469773 C31.0438658,12.8469773 31.148579,12.8132582 31.2333467,12.74582 C31.3181145,12.6783818 31.3779505,12.6013096 31.4128549,12.5146033 L31.4128549,12.5146033 L32.415109,10.0145729 L37.2244328,10.0145729 L38.2266869,12.5146033 C38.2665776,12.6109436 38.3264137,12.6904243 38.4061951,12.7530455 C38.4859765,12.8156667 38.5906896,12.8469773 38.7203344,12.8469773 L38.7203344,12.8469773 L39.8422607,12.8469773 L35.5565025,2.49280493 L34.0830393,2.49280493 L29.7972811,12.8469773 L30.9192074,12.8469773 Z M36.8205393,9.00299985 L32.8190025,9.00299985 L34.5018918,4.79774631 C34.5517552,4.67250393 34.6028652,4.52678925 34.6552217,4.36060225 C34.7075783,4.19441526 34.7611814,4.01257297 34.8160311,3.81507538 C34.9207443,4.20525354 35.0279505,4.53040201 35.13765,4.79052079 L35.13765,4.79052079 L36.8205393,9.00299985 Z M45.4290934,12.8469773 C46.216935,12.8469773 46.9349678,12.7229392 47.5831918,12.474863 C48.2314158,12.2267867 48.7873926,11.8763489 49.2511221,11.4235496 C49.7148516,10.9707502 50.073868,10.4264276 50.3281713,9.7905817 C50.5824746,9.1547358 50.7096262,8.4490432 50.7096262,7.67350388 C50.7096262,6.89796457 50.5824746,6.19227197 50.3281713,5.55642607 C50.073868,4.92058017 49.7148516,4.3750533 49.2511221,3.91984544 C48.7873926,3.46463758 48.2314158,3.11299553 47.5831918,2.86491929 C46.9349678,2.61684305 46.216935,2.49280493 45.4290934,2.49280493 L45.4290934,2.49280493 L41.420077,2.49280493 L41.420077,12.8469773 L45.4290934,12.8469773 Z M45.4290934,11.7125704 L42.8785811,11.7125704 L42.8785811,3.62721182 L45.4290934,3.62721182 C46.0025224,3.62721182 46.5235948,3.71873509 46.9923107,3.90178164 C47.4610265,4.08482818 47.8599336,4.34976397 48.189032,4.69658901 C48.5181303,5.04341404 48.7724336,5.4673113 48.9519418,5.9682808 C49.13145,6.46925029 49.2212041,7.03765799 49.2212041,7.67350388 C49.2212041,8.30934978 49.13145,8.87775747 48.9519418,9.37872697 C48.7724336,9.87969646 48.5181303,10.3023895 48.189032,10.646806 C47.8599336,10.9912225 47.4610265,11.2549541 46.9923107,11.4380006 C46.5235948,11.6210472 46.0025224,11.7125704 45.4290934,11.7125704 L45.4290934,11.7125704 Z M58.9965615,12.8469773 L58.9965615,11.6692173 L54.3592664,11.6692173 L54.3592664,2.49280493 L52.9082418,2.49280493 L52.9082418,12.8469773 L58.9965615,12.8469773 Z M62.5414885,12.8469773 L62.5414885,2.49280493 L61.0904639,2.49280493 L61.0904639,12.8469773 L62.5414885,12.8469773 Z M66.9091615,12.8469773 L66.9091615,5.46971981 C66.9091615,5.37337952 66.9066683,5.26740521 66.901682,5.15179686 C66.8966956,5.03618852 66.8892161,4.91817167 66.8792434,4.79774631 L66.8792434,4.79774631 L73.0797557,12.5940841 C73.1545508,12.6856073 73.2305925,12.750637 73.3078807,12.7891731 C73.385169,12.8277093 73.481156,12.8469773 73.5958418,12.8469773 L73.5958418,12.8469773 L74.3288336,12.8469773 L74.3288336,2.49280493 L73.0573172,2.49280493 L73.0573172,9.8267093 C73.0573172,9.93750063 73.0598104,10.0519047 73.0647967,10.1699216 C73.0697831,10.2879384 73.0797557,10.409568 73.0947148,10.5348104 L73.0947148,10.5348104 L66.886723,2.73124714 C66.8069415,2.63490686 66.7358862,2.57108142 66.673557,2.53977082 C66.6112277,2.50846023 66.5152407,2.49280493 66.3855959,2.49280493 L66.3855959,2.49280493 L65.6376451,2.49280493 L65.6376451,12.8469773 L66.9091615,12.8469773 Z M81.8453795,12.9625857 C82.2891637,12.9625857 82.7005366,12.9397048 83.0794984,12.8939432 C83.4584601,12.8481816 83.8137367,12.7783349 84.1453283,12.6844031 C84.4769198,12.5904713 84.788566,12.4736587 85.0802668,12.3339653 C85.3719676,12.1942719 85.6524492,12.0304934 85.9217115,11.8426298 L85.9217115,11.8426298 L85.9217115,7.86859296 L82.6307279,7.86859296 L82.6307279,8.66340034 C82.6307279,8.74047256 82.6593993,8.80550226 82.7167422,8.85848942 C82.7740851,8.91147657 82.8501268,8.93797015 82.9448672,8.93797015 L82.9448672,8.93797015 L84.605318,8.93797015 L84.605318,11.221235 C84.4158372,11.3175752 84.2263563,11.4030773 84.0368754,11.477741 C83.8473945,11.5524047 83.6454478,11.6162301 83.4310352,11.6692173 C83.2166227,11.7222045 82.9884977,11.7619448 82.7466602,11.7884384 C82.5048228,11.814932 82.2393003,11.8281788 81.9500926,11.8281788 C81.3716773,11.8281788 80.8431254,11.734247 80.3644369,11.5463834 C79.8857484,11.3585199 79.4718822,11.0863586 79.1228385,10.7298995 C78.7737948,10.3734404 78.5032859,9.93870489 78.3113119,9.42569286 C78.1193378,8.91268083 78.0233508,8.32861784 78.0233508,7.67350388 C78.0233508,7.04729202 78.1155981,6.48249708 78.3000926,5.97911908 C78.4845872,5.47574108 78.7488631,5.0470268 79.0929205,4.69297624 C79.4369779,4.33892569 79.8533372,4.06676438 80.3419984,3.87649231 C80.8306596,3.68622024 81.3766637,3.59108421 81.9800107,3.59108421 C82.3938768,3.59108421 82.7516466,3.6223948 83.0533201,3.68501599 C83.3549936,3.74763718 83.6167764,3.82350515 83.8386684,3.91261992 C84.0605605,4.00173468 84.2487948,4.09446221 84.4033713,4.1908025 C84.5579478,4.28714278 84.6975653,4.36903203 84.8222238,4.43647023 C84.9169642,4.48945739 85.0042251,4.51595097 85.0840066,4.51595097 C85.2186377,4.51595097 85.3283372,4.45092127 85.4131049,4.32086189 L85.4131049,4.32086189 L85.8244779,3.68501599 C85.5951063,3.48270139 85.3482825,3.30085909 85.0840066,3.13948911 C84.8197306,2.97811913 84.5317695,2.84083422 84.2201234,2.72763438 C83.9084772,2.61443455 83.5706527,2.52772829 83.20665,2.46751561 C82.8426473,2.40730293 82.4487265,2.37719659 82.0248877,2.37719659 C81.1871828,2.37719659 80.4305059,2.50484747 79.754857,2.76014923 C79.0792081,3.01545099 78.5032859,3.37552282 78.0270906,3.8403647 C77.5508952,4.30520659 77.1843993,4.862776 76.9276029,5.51307294 C76.6708064,6.16336988 76.5424082,6.88351353 76.5424082,7.67350388 C76.5424082,8.45386021 76.6732996,9.16918684 76.9350824,9.81948378 C77.1968652,10.4697807 77.5621145,11.0273501 78.0308303,11.492192 C78.4995462,11.9570339 79.0580161,12.31831 79.7062402,12.5760203 C80.3544642,12.8337305 81.0675107,12.9625857 81.8453795,12.9625857 Z M90.8653066,12.9625857 C91.4337492,12.9625857 91.9411092,12.8782879 92.3873865,12.7096924 C92.8336638,12.5410969 93.2101324,12.3098802 93.5167922,12.0160423 C93.823452,11.7222045 94.0565634,11.3765837 94.2161262,10.97918 C94.3756891,10.5817763 94.4554705,10.1566748 94.4554705,9.70387544 C94.4554705,9.27516116 94.381922,8.91388508 94.234825,8.62004721 C94.087728,8.32620933 93.8932608,8.07813309 93.6514234,7.87581849 C93.4095859,7.67350388 93.1353373,7.50611263 92.8286775,7.37364474 C92.5220176,7.24117684 92.2078783,7.12195574 91.8862594,7.01598142 C91.5646406,6.91000711 91.2505012,6.80764555 90.9438414,6.70889676 C90.6371816,6.61014796 90.3629329,6.49333536 90.1210955,6.35845896 C89.8792581,6.22358256 89.6847908,6.06100832 89.5376939,5.87073626 C89.3905969,5.68046419 89.3170484,5.44081772 89.3170484,5.15179686 C89.3170484,4.92539719 89.3594322,4.71465281 89.4442,4.51956373 C89.5289678,4.32447465 89.6548728,4.15467489 89.8219152,4.01016446 C89.9889575,3.86565403 90.1971372,3.75124994 90.4464541,3.66695219 C90.695771,3.58265443 90.9824855,3.54050556 91.3065975,3.54050556 C91.6506549,3.54050556 91.9436023,3.58145018 92.1854398,3.66333942 C92.4272772,3.74522867 92.6342102,3.83554769 92.8062389,3.93429648 C92.9782676,4.03304528 93.1203783,4.1233643 93.2325709,4.20525354 C93.3447635,4.28714278 93.4432437,4.32808741 93.5280115,4.32808741 C93.6077929,4.32808741 93.6726153,4.3100236 93.7224787,4.273896 C93.7723421,4.23776839 93.8197123,4.18357698 93.8645893,4.11132176 L93.8645893,4.11132176 L94.2161262,3.44657378 C93.8471372,3.09974874 93.4158189,2.83481295 92.9221713,2.65176641 C92.4285238,2.46871986 91.8825197,2.37719659 91.284159,2.37719659 C90.7506208,2.37719659 90.2781652,2.45667733 89.8667922,2.6156388 C89.4554193,2.77460027 89.1101153,2.98654891 88.8308803,3.2514847 C88.5516454,3.51642049 88.3384794,3.81989239 88.1913824,4.16190041 C88.0442854,4.50390843 87.9707369,4.85795899 87.9707369,5.22405208 C87.9707369,5.68166844 88.0442854,6.06582534 88.1913824,6.37652277 C88.3384794,6.68722019 88.5317,6.94613471 88.7710443,7.15326633 C89.0103885,7.36039795 89.2833906,7.52899345 89.5900504,7.65905284 C89.8967102,7.78911223 90.2108496,7.90351632 90.5324684,8.00226511 C90.8540873,8.10101391 91.1682266,8.1973542 91.4748865,8.29128598 C91.7815463,8.38521776 92.0545484,8.49962185 92.2938926,8.63449825 C92.5332369,8.76937465 92.7264575,8.9367659 92.8735545,9.136672 C93.0206515,9.33657809 93.0942,9.59308411 93.0942,9.90619004 C93.0942,10.1903939 93.0443366,10.4481042 92.9446098,10.6793208 C92.8448831,10.9105375 92.7015258,11.1092394 92.5145381,11.2754264 C92.3275504,11.4416134 92.0994254,11.5704685 91.8301631,11.6619918 C91.5609008,11.753515 91.254241,11.7992767 90.9101836,11.7992767 C90.4963175,11.7992767 90.1460272,11.7450853 89.8593127,11.6367025 C89.5725982,11.5283196 89.3282676,11.4090985 89.1263209,11.2790391 C88.9243742,11.1489797 88.7560852,11.0297586 88.6214541,10.9213758 C88.486823,10.812993 88.3671508,10.7588016 88.2624377,10.7588016 C88.192629,10.7588016 88.1290531,10.7768654 88.0717102,10.812993 C88.0143673,10.8491206 87.9657505,10.893678 87.9258598,10.9466651 L87.9258598,10.9466651 L87.5070074,11.6114131 C87.9109008,12.0256764 88.3983154,12.3544376 88.9692512,12.5976968 C89.540187,12.840956 90.1722055,12.9625857 90.8653066,12.9625857 Z" id="SCHÄDLINGS" fill="#F8F8FF"></path><path d="M100.319045,12.8469773 C100.917406,12.8469773 101.449697,12.7759263 101.91592,12.6338244 C102.382143,12.4917225 102.776064,12.2906122 103.097682,12.0304934 C103.419301,11.7703746 103.663632,11.4596772 103.830674,11.0984011 C103.997717,10.737125 104.081238,10.3373128 104.081238,9.89896452 C104.081238,9.25348459 103.881784,8.73324704 103.482877,8.33825187 C103.08397,7.94325669 102.493089,7.67109538 101.710234,7.52176793 C102.049305,7.42061063 102.344745,7.29055124 102.596555,7.13158977 C102.848365,6.97262829 103.057792,6.79199025 103.224834,6.58967565 C103.391876,6.38736105 103.516535,6.16818689 103.598809,5.93215319 C103.681084,5.69611949 103.722221,5.45045175 103.722221,5.19514999 C103.722221,4.77606974 103.648673,4.39913837 103.501576,4.06435587 C103.354479,3.72957337 103.1276,3.44657378 102.820941,3.21535709 C102.514281,2.9841404 102.122853,2.80591087 101.646658,2.68066849 C101.170462,2.55542612 100.603266,2.49280493 99.9450697,2.49280493 L99.9450697,2.49280493 L96.5269344,2.49280493 L96.5269344,12.8469773 L100.319045,12.8469773 Z M99.8927131,7.13158977 L97.977959,7.13158977 L97.977959,3.59830973 L99.9450697,3.59830973 C100.742884,3.59830973 101.331272,3.74041165 101.710234,4.0246155 C102.089195,4.30881935 102.278676,4.75439318 102.278676,5.36133699 C102.278676,5.62145576 102.231306,5.86110223 102.136566,6.08027638 C102.041825,6.29945054 101.895975,6.48610984 101.699014,6.6402543 C101.502054,6.79439876 101.253984,6.91482412 100.954803,7.00153038 C100.655623,7.08823664 100.301593,7.13158977 99.8927131,7.13158977 L99.8927131,7.13158977 Z M100.296607,11.734247 L97.977959,11.734247 L97.977959,8.12871174 L100.289127,8.12871174 C101.081955,8.12871174 101.674083,8.28406045 102.06551,8.59475788 C102.456938,8.90545531 102.652652,9.32814832 102.652652,9.86283691 C102.652652,10.1374067 102.607775,10.3890957 102.51802,10.6179039 C102.428266,10.8467121 102.287402,11.0442097 102.095428,11.2103967 C101.903454,11.3765837 101.659124,11.5054388 101.362436,11.5969621 C101.065749,11.6884854 100.710473,11.734247 100.296607,11.734247 L100.296607,11.734247 Z M113.033849,12.8469773 L113.033849,11.7053449 L107.887948,11.7053449 L107.887948,8.17206487 L112.054034,8.17206487 L112.054034,7.07378559 L107.887948,7.07378559 L107.887948,3.63443734 L113.033849,3.63443734 L113.033849,2.49280493 L106.429443,2.49280493 L106.429443,12.8469773 L113.033849,12.8469773 Z M116.937793,12.8469773 L116.937793,8.10703518 L117.595989,8.10703518 C117.715661,8.10703518 117.816635,8.11305644 117.898909,8.12509898 C117.981184,8.13714152 118.053486,8.15761383 118.115815,8.18651591 C118.178144,8.215418 118.232994,8.25034135 118.280364,8.29128598 C118.327735,8.3322306 118.378845,8.38160499 118.433694,8.43940917 L118.433694,8.43940917 L122.136051,12.5507309 C122.175942,12.5940841 122.215832,12.6350287 122.255723,12.6735648 C122.295614,12.7121009 122.339244,12.7434115 122.386614,12.7674966 C122.433985,12.7915816 122.490081,12.8108497 122.554903,12.8253007 C122.619726,12.8397518 122.699507,12.8469773 122.794248,12.8469773 L122.794248,12.8469773 L124.050805,12.8469773 L119.787485,7.94084818 C119.672799,7.81078879 119.5631,7.70240597 119.458387,7.61569971 C119.353674,7.52899345 119.231508,7.46396376 119.091891,7.42061063 C119.196604,7.37244049 119.295084,7.3098193 119.387332,7.23274707 C119.479579,7.15567484 119.578059,7.06174306 119.682772,6.95095173 L119.682772,6.95095173 L123.766584,2.49280493 L122.532465,2.49280493 C122.372902,2.49280493 122.242011,2.51809426 122.139791,2.56867291 C122.037571,2.61925156 121.931611,2.70475357 121.821911,2.82517892 L121.821911,2.82517892 L118.254186,6.72696056 C118.154459,6.83775189 118.0485,6.91602837 117.936307,6.96179001 C117.824114,7.00755165 117.673278,7.03043247 117.483797,7.03043247 L117.483797,7.03043247 L116.937793,7.03043247 L116.937793,2.49280493 L115.494248,2.49280493 L115.494248,12.8469773 L116.937793,12.8469773 Z M127.939789,1.58961474 C128.054475,1.58961474 128.162928,1.56914243 128.265148,1.52819781 C128.367368,1.48725319 128.455875,1.43065327 128.53067,1.35839805 C128.605466,1.28614284 128.665302,1.20304934 128.710179,1.10911756 C128.755056,1.01518578 128.777494,0.915232729 128.777494,0.809258413 C128.777494,0.698467083 128.755056,0.59369702 128.710179,0.494948226 C128.665302,0.396199432 128.605466,0.310697427 128.53067,0.238442211 C128.455875,0.166186996 128.367368,0.108382823 128.265148,0.0650296939 C128.162928,0.0216765646 128.054475,0 127.939789,0 C127.835076,0 127.734103,0.0216765646 127.636869,0.0650296939 C127.539636,0.108382823 127.453621,0.166186996 127.378826,0.238442211 C127.304031,0.310697427 127.244195,0.396199432 127.199318,0.494948226 C127.154441,0.59369702 127.132002,0.698467083 127.132002,0.809258413 C127.132002,0.915232729 127.154441,1.01518578 127.199318,1.10911756 C127.244195,1.20304934 127.304031,1.28614284 127.378826,1.35839805 C127.453621,1.43065327 127.539636,1.48725319 127.636869,1.52819781 C127.734103,1.56914243 127.835076,1.58961474 127.939789,1.58961474 Z M131.141019,1.58961474 C131.250718,1.58961474 131.355431,1.56914243 131.455158,1.52819781 C131.554885,1.48725319 131.642146,1.43065327 131.716941,1.35839805 C131.791736,1.28614284 131.851572,1.20304934 131.896449,1.10911756 C131.941326,1.01518578 131.963765,0.915232729 131.963765,0.809258413 C131.963765,0.698467083 131.941326,0.59369702 131.896449,0.494948226 C131.851572,0.396199432 131.791736,0.310697427 131.716941,0.238442211 C131.642146,0.166186996 131.554885,0.108382823 131.455158,0.0650296939 C131.355431,0.0216765646 131.250718,0 131.141019,0 C131.026333,0 130.919127,0.0216765646 130.8194,0.0650296939 C130.719673,0.108382823 130.632412,0.166186996 130.557617,0.238442211 C130.482822,0.310697427 130.424233,0.396199432 130.381849,0.494948226 C130.339465,0.59369702 130.318273,0.698467083 130.318273,0.809258413 C130.318273,0.915232729 130.339465,1.01518578 130.381849,1.10911756 C130.424233,1.20304934 130.482822,1.28614284 130.557617,1.35839805 C130.632412,1.43065327 130.719673,1.48725319 130.8194,1.52819781 C130.919127,1.56914243 131.026333,1.58961474 131.141019,1.58961474 Z M125.65106,12.8469773 C125.775718,12.8469773 125.880431,12.8132582 125.965199,12.74582 C126.049967,12.6783818 126.109803,12.6013096 126.144707,12.5146033 L126.144707,12.5146033 L127.146961,10.0145729 L131.956285,10.0145729 L132.958539,12.5146033 C132.99843,12.6109436 133.058266,12.6904243 133.138048,12.7530455 C133.217829,12.8156667 133.322542,12.8469773 133.452187,12.8469773 L133.452187,12.8469773 L134.574113,12.8469773 L130.288355,2.49280493 L128.814892,2.49280493 L124.529134,12.8469773 L125.65106,12.8469773 Z M131.552392,9.00299985 L127.550855,9.00299985 L129.233744,4.79774631 C129.283608,4.67250393 129.334718,4.52678925 129.387074,4.36060225 C129.439431,4.19441526 129.493034,4.01257297 129.547884,3.81507538 C129.652597,4.20525354 129.759803,4.53040201 129.869502,4.79052079 L129.869502,4.79052079 L131.552392,9.00299985 Z M137.423446,12.8469773 L137.423446,5.23850312 C137.423446,5.13734582 137.419706,5.02655449 137.412227,4.90612913 C137.404747,4.78570377 137.393528,4.66286991 137.378569,4.53762753 L137.378569,4.53762753 L141.133282,11.0333714 C141.25794,11.250137 141.432462,11.3585199 141.656848,11.3585199 L141.656848,11.3585199 L141.866274,11.3585199 C142.090659,11.3585199 142.265181,11.250137 142.389839,11.0333714 L142.389839,11.0333714 L146.062278,4.5593041 C146.052305,4.67972946 146.044826,4.79774631 146.039839,4.91335465 C146.034853,5.028963 146.03236,5.13734582 146.03236,5.23850312 L146.03236,5.23850312 L146.03236,12.8469773 L147.303876,12.8469773 L147.303876,2.49280493 L146.234307,2.49280493 C146.104662,2.49280493 146.004935,2.50484747 145.935126,2.52893254 C145.865317,2.55301761 145.798002,2.62045581 145.73318,2.73124714 L145.73318,2.73124714 L142.105618,9.09693163 C142.035809,9.222174 141.97348,9.34621212 141.91863,9.46904599 C141.863781,9.59187985 141.811424,9.72073499 141.761561,9.85561139 C141.711697,9.725552 141.660587,9.59669687 141.608231,9.46904599 C141.555874,9.34139511 141.494792,9.21976549 141.424983,9.10415715 L141.424983,9.10415715 L137.722626,2.73124714 C137.657804,2.62045581 137.590488,2.55301761 137.52068,2.52893254 C137.450871,2.50484747 137.351144,2.49280493 137.221499,2.49280493 L137.221499,2.49280493 L136.15193,2.49280493 L136.15193,12.8469773 L137.423446,12.8469773 Z M151.731385,12.8469773 L151.731385,8.97409776 L153.451672,8.97409776 C154.09491,8.97409776 154.665846,8.89341277 155.16448,8.73204279 C155.663113,8.57067281 156.080719,8.34547739 156.417297,8.05645653 C156.753875,7.76743566 157.009425,7.42301914 157.183947,7.02320694 C157.358469,6.62339475 157.44573,6.18263794 157.44573,5.7009365 C157.44573,5.21441805 157.364702,4.77366124 157.202645,4.37866606 C157.040589,3.98367088 156.795012,3.64647987 156.465914,3.36709304 C156.136816,3.08770621 155.721703,2.87214481 155.220576,2.72040886 C154.719449,2.56867291 154.129814,2.49280493 153.451672,2.49280493 L153.451672,2.49280493 L150.28784,2.49280493 L150.28784,12.8469773 L151.731385,12.8469773 Z M153.451672,7.86136744 L151.731385,7.86136744 L151.731385,3.59830973 L153.451672,3.59830973 C154.304336,3.59830973 154.941341,3.78376478 155.362686,4.15467489 C155.784032,4.525585 155.994705,5.04100553 155.994705,5.7009365 C155.994705,6.01885945 155.939855,6.31028882 155.830156,6.57522461 C155.720456,6.8401604 155.5584,7.06776433 155.343988,7.25803639 C155.129575,7.44830846 154.864053,7.59643165 154.54742,7.70240597 C154.230788,7.80838029 153.865538,7.86136744 153.451672,7.86136744 L153.451672,7.86136744 Z M160.960739,12.8469773 L160.960739,8.39605604 L165.358689,8.39605604 L165.358689,7.25442363 L160.960739,7.25442363 L160.960739,3.63443734 L166.10664,3.63443734 L166.10664,2.49280493 L159.502234,2.49280493 L159.502234,12.8469773 L160.960739,12.8469773 Z M172.359149,12.9698112 C173.017346,12.9698112 173.61072,12.8638369 174.139272,12.6518882 C174.667824,12.4399396 175.115348,12.147306 175.481844,11.7739874 C175.84834,11.4006687 176.130068,10.9587077 176.327028,10.4481042 C176.523989,9.93750063 176.622469,9.38354398 176.622469,8.7862342 L176.622469,8.7862342 L176.622469,2.49280493 L175.178924,2.49280493 L175.178924,8.7862342 C175.178924,9.21976549 175.115348,9.61716918 174.988196,9.97844526 C174.861045,10.3397213 174.67655,10.6504188 174.434713,10.9105375 C174.192875,11.1706563 173.897435,11.3729709 173.548391,11.5174813 C173.199347,11.6619918 172.802933,11.734247 172.359149,11.734247 C171.915365,11.734247 171.517705,11.6607875 171.166168,11.5138686 C170.814631,11.3669496 170.517944,11.1634308 170.276106,10.903312 C170.034269,10.6431932 169.849774,10.3324958 169.722623,9.97121974 C169.595471,9.60994366 169.531895,9.21253997 169.531895,8.77900868 L169.531895,8.77900868 L169.531895,2.49280493 L168.08835,2.49280493 L168.08835,8.7862342 C168.08835,9.38354398 168.18683,9.93750063 168.383791,10.4481042 C168.580751,10.9587077 168.863726,11.4006687 169.232715,11.7739874 C169.601704,12.147306 170.050474,12.4399396 170.579026,12.6518882 C171.107578,12.8638369 171.700952,12.9698112 172.359149,12.9698112 Z M180.608687,12.8469773 L180.608687,5.46971981 C180.608687,5.37337952 180.606194,5.26740521 180.601207,5.15179686 C180.596221,5.03618852 180.588742,4.91817167 180.578769,4.79774631 L180.578769,4.79774631 L186.779281,12.5940841 C186.854076,12.6856073 186.930118,12.750637 187.007406,12.7891731 C187.084694,12.8277093 187.180681,12.8469773 187.295367,12.8469773 L187.295367,12.8469773 L188.028359,12.8469773 L188.028359,2.49280493 L186.756843,2.49280493 L186.756843,9.8267093 C186.756843,9.93750063 186.759336,10.0519047 186.764322,10.1699216 C186.769308,10.2879384 186.779281,10.409568 186.79424,10.5348104 L186.79424,10.5348104 L180.586248,2.73124714 C180.506467,2.63490686 180.435412,2.57108142 180.373082,2.53977082 C180.310753,2.50846023 180.214766,2.49280493 180.085121,2.49280493 L180.085121,2.49280493 L179.33717,2.49280493 L179.33717,12.8469773 L180.608687,12.8469773 Z M195.544905,12.9625857 C195.988689,12.9625857 196.400062,12.9397048 196.779024,12.8939432 C197.157986,12.8481816 197.513262,12.7783349 197.844854,12.6844031 C198.176445,12.5904713 198.488091,12.4736587 198.779792,12.3339653 C199.071493,12.1942719 199.351975,12.0304934 199.621237,11.8426298 L199.621237,11.8426298 L199.621237,7.86859296 L196.330253,7.86859296 L196.330253,8.66340034 C196.330253,8.74047256 196.358925,8.80550226 196.416268,8.85848942 C196.473611,8.91147657 196.549652,8.93797015 196.644393,8.93797015 L196.644393,8.93797015 L198.304843,8.93797015 L198.304843,11.221235 C198.115363,11.3175752 197.925882,11.4030773 197.736401,11.477741 C197.54692,11.5524047 197.344973,11.6162301 197.130561,11.6692173 C196.916148,11.7222045 196.688023,11.7619448 196.446186,11.7884384 C196.204348,11.814932 195.938826,11.8281788 195.649618,11.8281788 C195.071203,11.8281788 194.542651,11.734247 194.063962,11.5463834 C193.585274,11.3585199 193.171408,11.0863586 192.822364,10.7298995 C192.47332,10.3734404 192.202811,9.93870489 192.010837,9.42569286 C191.818863,8.91268083 191.722876,8.32861784 191.722876,7.67350388 C191.722876,7.04729202 191.815123,6.48249708 191.999618,5.97911908 C192.184113,5.47574108 192.448389,5.0470268 192.792446,4.69297624 C193.136503,4.33892569 193.552863,4.06676438 194.041524,3.87649231 C194.530185,3.68622024 195.076189,3.59108421 195.679536,3.59108421 C196.093402,3.59108421 196.451172,3.6223948 196.752845,3.68501599 C197.054519,3.74763718 197.316302,3.82350515 197.538194,3.91261992 C197.760086,4.00173468 197.94832,4.09446221 198.102897,4.1908025 C198.257473,4.28714278 198.397091,4.36903203 198.521749,4.43647023 C198.61649,4.48945739 198.703751,4.51595097 198.783532,4.51595097 C198.918163,4.51595097 199.027863,4.45092127 199.11263,4.32086189 L199.11263,4.32086189 L199.524003,3.68501599 C199.294632,3.48270139 199.047808,3.30085909 198.783532,3.13948911 C198.519256,2.97811913 198.231295,2.84083422 197.919649,2.72763438 C197.608003,2.61443455 197.270178,2.52772829 196.906175,2.46751561 C196.542173,2.40730293 196.148252,2.37719659 195.724413,2.37719659 C194.886708,2.37719659 194.130031,2.50484747 193.454382,2.76014923 C192.778733,3.01545099 192.202811,3.37552282 191.726616,3.8403647 C191.250421,4.30520659 190.883925,4.862776 190.627128,5.51307294 C190.370332,6.16336988 190.241934,6.88351353 190.241934,7.67350388 C190.241934,8.45386021 190.372825,9.16918684 190.634608,9.81948378 C190.896391,10.4697807 191.26164,11.0273501 191.730356,11.492192 C192.199072,11.9570339 192.757542,12.31831 193.405766,12.5760203 C194.05399,12.8337305 194.767036,12.9625857 195.544905,12.9625857 Z" id="BEKÄMPFUNG" fill="#69F0AE"></path></g></g></g></g></svg> 